<svg xmlns="http://www.w3.org/2000/svg" xmlns:xlink="http://www.w3.org/1999/xlink" width="400" zoomAndPan="magnify" viewBox="0 0 300 37.5" height="50" preserveAspectRatio="xMidYMid meet" version="1.0"><defs><g/><clipPath id="bc4ff2e6ed"><path d="M 2 1 L 298.023438 1 L 298.023438 37.007812 L 2 37.007812 Z M 2 1 " clip-rule="nonzero"/></clipPath></defs><g clip-path="url(#bc4ff2e6ed)"><path stroke-linecap="butt" transform="matrix(0.762045, 0, 0, 0.762045, -2.409065, 4.024429)" fill="none" stroke-linejoin="miter" d="M 29.0374 16.386545 L 20.892174 16.386545 L 20.892174 8.57451 L 18.113878 8.57451 L 18.113878 28.002078 L 20.892174 28.002078 L 20.892174 19.139211 L 29.0374 19.139211 L 29.0374 28.002078 L 31.841326 28.002078 L 31.841326 8.57451 L 29.0374 8.57451 Z M 43.610639 8.743668 L 36.567505 8.743668 L 36.567505 28.002078 L 39.376557 28.002078 L 39.376557 21.594569 L 43.610639 21.594569 C 47.762705 21.594569 49.859242 18.39594 49.859242 15.176807 C 49.859242 11.962801 47.762705 8.743668 43.610639 8.743668 Z M 43.610639 18.836777 L 39.376557 18.836777 L 39.376557 11.55272 L 43.610639 11.55272 C 45.948099 11.55272 47.106576 13.367327 47.106576 15.207563 C 47.106576 17.027296 45.948099 18.836777 43.610639 18.836777 Z M 51.612337 18.431822 C 51.612337 21.097346 52.765689 23.542452 54.421389 25.305798 C 56.092467 27.064019 58.517069 28.135354 61.131333 28.135354 C 65.616589 28.135354 69.133031 25.167396 70.235122 20.794912 L 67.508086 20.794912 C 66.523893 23.706484 64.042905 25.387814 61.131333 25.387814 C 59.291096 25.387814 57.440607 24.613787 56.23087 23.352789 C 55.026258 22.08154 54.303491 20.348949 54.303491 18.431822 C 54.303491 16.448057 55.051888 14.741097 56.261626 13.474973 C 57.466237 12.208849 59.291096 11.332302 61.131333 11.332302 C 63.960889 11.332302 66.329104 12.870104 67.34918 15.756046 L 70.09672 15.756046 C 68.994628 11.409192 65.529447 8.57451 61.131333 8.57451 C 58.517069 8.57451 56.010451 9.784248 54.334247 11.52709 C 52.678546 13.285311 51.612337 15.704786 51.612337 18.431822 Z M 80.02067 9.297277 C 80.02067 10.337856 80.871588 10.860709 81.691749 10.860709 C 82.547792 10.860709 83.373079 10.337856 83.373079 9.297277 C 83.373079 8.246445 82.547792 7.749223 81.727631 7.749223 C 80.871588 7.749223 80.02067 8.272075 80.02067 9.297277 Z M 80.348735 12.946994 L 83.045015 12.946994 L 83.045015 28.002078 L 80.348735 28.002078 Z M 90.277811 14.956389 L 90.277811 13.116152 L 87.581531 13.116152 L 87.581531 28.002078 L 90.277811 28.002078 L 90.277811 19.913238 C 90.277811 17.329731 91.815614 15.294706 94.650296 15.294706 C 97.895059 15.294706 98.643456 17.211832 98.643456 20.020885 L 98.643456 28.002078 L 101.30898 28.002078 L 101.30898 19.995254 C 101.30898 15.730416 99.381601 12.895734 94.845084 12.895734 C 92.974091 12.895734 91.374777 13.367327 90.277811 14.956389 Z M 115.764321 13.116152 L 115.764321 9.82013 L 113.073167 10.337856 L 113.073167 13.116152 L 110.843354 13.116152 L 110.843354 15.26395 L 113.073167 15.26395 L 113.073167 23.629594 C 113.073167 27.094775 114.974916 28.078968 117.886488 28.078968 C 118.270938 28.078968 118.686145 28.053338 119.121856 28.027708 L 119.121856 25.772265 C 118.716901 25.797895 118.327324 25.823525 117.994134 25.823525 C 116.65112 25.823525 115.764321 25.413444 115.764321 23.655224 L 115.764321 15.26395 L 119.044965 15.26395 L 119.044965 13.116152 Z M 124.293997 14.956389 L 124.293997 8.743668 L 121.628473 8.743668 L 121.628473 28.002078 L 124.293997 28.002078 L 124.293997 19.913238 C 124.293997 17.329731 125.836925 15.294706 128.666482 15.294706 C 131.91637 15.294706 132.654515 17.211832 132.654515 20.020885 L 132.654515 28.002078 L 135.355921 28.002078 L 135.355921 19.995254 C 135.355921 15.730416 133.397786 12.895734 128.86127 12.895734 C 126.990277 12.895734 125.421719 13.367327 124.293997 14.956389 Z M 154.132487 19.913238 C 153.830052 15.233194 150.200839 12.895734 146.520366 12.895734 C 142.583592 12.895734 138.78522 15.453612 138.78522 20.569367 C 138.78522 25.690249 142.634852 28.273757 146.458854 28.273757 C 149.513954 28.273757 152.569055 26.648812 153.696776 23.404049 L 150.91848 23.404049 C 150.036807 25.08538 148.329846 25.885037 146.484484 25.885037 C 144.259796 25.885037 141.4815 24.116565 141.4815 21.204992 L 154.081227 21.204992 C 154.132487 20.953818 154.163243 20.677013 154.163243 20.374579 C 154.163243 20.215673 154.163243 20.077271 154.132487 19.913238 Z M 151.297805 18.980305 L 141.589146 18.980305 C 142.137629 16.335285 144.341812 15.26395 146.520366 15.26395 C 148.663037 15.26395 150.774952 16.304529 151.297805 18.980305 Z M 163.538711 18.431822 C 163.538711 21.097346 164.692062 23.542452 166.342637 25.305798 C 168.018841 27.064019 170.443443 28.135354 173.05258 28.135354 C 177.537837 28.135354 181.059404 25.167396 182.161496 20.794912 L 179.43446 20.794912 C 178.44514 23.706484 175.969279 25.387814 173.05258 25.387814 C 171.212344 25.387814 169.366981 24.613787 168.157243 23.352789 C 166.947506 22.08154 166.229864 20.348949 166.229864 18.431822 C 166.229864 16.448057 166.973136 14.741097 168.182873 13.474973 C 169.392611 12.208849 171.212344 11.332302 173.05258 11.332302 C 175.887263 11.332302 178.250352 12.870104 179.270428 15.756046 L 182.017968 15.756046 C 180.921002 11.409192 177.450695 8.57451 173.05258 8.57451 C 170.443443 8.57451 167.936825 9.784248 166.255495 11.52709 C 164.60492 13.285311 163.538711 15.704786 163.538711 18.431822 Z M 185.098698 9.297277 C 185.098698 10.337856 185.949615 10.860709 186.769777 10.860709 C 187.620694 10.860709 188.451107 10.337856 188.451107 9.297277 C 188.451107 8.246445 187.620694 7.749223 186.805659 7.749223 C 185.949615 7.749223 185.098698 8.272075 185.098698 9.297277 Z M 185.426763 12.946994 L 188.117917 12.946994 L 188.117917 28.002078 L 185.426763 28.002078 Z M 196.176 13.116152 L 196.176 9.82013 L 193.484846 10.337856 L 193.484846 13.116152 L 191.255033 13.116152 L 191.255033 15.26395 L 193.484846 15.26395 L 193.484846 23.629594 C 193.484846 27.094775 195.381469 28.078968 198.298167 28.078968 C 198.682618 28.078968 199.097825 28.053338 199.533535 28.027708 L 199.533535 25.772265 C 199.123455 25.797895 198.733878 25.823525 198.405814 25.823525 C 197.0628 25.823525 196.176 25.413444 196.176 23.655224 L 196.176 15.26395 L 199.451519 15.26395 L 199.451519 13.116152 Z M 212.128136 12.895734 L 209.570258 19.523662 L 207.837667 24.367739 L 206.161463 19.498032 L 203.465183 12.895734 L 200.604871 12.895734 L 206.407511 27.228051 L 204.321226 32.594981 L 207.181538 32.594981 L 214.993574 12.895734 Z M 217.243891 16.66335 C 216.387848 16.66335 215.706089 17.298975 215.706089 18.262664 C 215.706089 19.062321 216.387848 19.826096 217.243891 19.826096 C 218.202454 19.826096 218.868835 19.062321 218.868835 18.262664 C 218.868835 17.298975 218.202454 16.66335 217.243891 16.66335 Z M 217.243891 24.916222 C 216.387848 24.916222 215.706089 25.546721 215.706089 26.515536 C 215.706089 27.289563 216.387848 28.078968 217.243891 28.078968 C 218.202454 28.078968 218.868835 27.289563 218.868835 26.515536 C 218.868835 25.546721 218.202454 24.916222 217.243891 24.916222 Z M 236.415159 8.743668 L 229.366899 8.743668 L 229.366899 28.002078 L 232.175951 28.002078 L 232.175951 21.594569 L 236.415159 21.594569 C 240.562099 21.594569 242.658636 18.39594 242.658636 15.176807 C 242.658636 11.962801 240.562099 8.743668 236.415159 8.743668 Z M 236.415159 18.836777 L 232.175951 18.836777 L 232.175951 11.55272 L 236.415159 11.55272 C 238.752619 11.55272 239.90597 13.367327 239.90597 15.207563 C 239.90597 17.027296 238.752619 18.836777 236.415159 18.836777 Z M 260.861089 28.002078 L 260.861089 13.116152 L 258.169935 13.116152 L 258.195565 15.099917 C 256.873055 13.310941 254.643242 12.870104 252.803005 12.870104 C 247.76414 12.870104 244.852567 16.473687 244.852567 20.492477 C 244.852567 24.588157 247.656494 28.248127 252.854265 28.248127 C 254.704754 28.222497 257.093473 27.617628 258.169935 25.992683 L 258.169935 28.002078 Z M 258.169935 20.543737 C 258.169935 24.116565 255.278867 25.859407 252.803005 25.859407 C 249.506982 25.859407 247.548847 23.296403 247.548847 20.492477 C 247.548847 17.550149 249.532612 15.233194 252.803005 15.233194 C 255.335253 15.233194 258.169935 16.99654 258.169935 20.543737 Z M 267.407 14.956389 L 267.407 13.116152 L 264.705594 13.116152 L 264.705594 28.002078 L 267.407 28.002078 L 267.407 19.913238 C 267.407 17.329731 268.944803 15.294706 271.779485 15.294706 C 275.024248 15.294706 275.767519 17.211832 275.767519 20.020885 L 275.767519 28.002078 L 278.433043 28.002078 L 278.433043 19.995254 C 278.433043 15.730416 276.505664 12.895734 271.974273 12.895734 C 270.098154 12.895734 268.49884 13.367327 267.407 14.956389 Z M 297.163474 8.743668 L 294.467194 8.743668 L 294.467194 15.043531 C 293.170314 13.285311 291.304447 12.870104 289.459085 12.870104 C 284.425345 12.870104 281.565033 16.227639 281.565033 20.492477 C 281.565033 24.916222 284.286943 28.248127 289.484715 28.248127 C 291.355707 28.222497 293.390732 27.617628 294.467194 25.992683 L 294.467194 28.002078 L 297.163474 28.002078 Z M 294.467194 20.543737 C 294.467194 24.116565 291.960576 25.859407 289.428329 25.859407 C 286.157936 25.859407 284.261313 23.598838 284.261313 20.543737 C 284.261313 17.878213 286.157936 15.233194 289.459085 15.233194 C 291.960576 15.233194 294.467194 16.99654 294.467194 20.543737 Z M 315.945165 19.913238 C 315.642731 15.233194 312.008392 12.895734 308.327918 12.895734 C 304.391145 12.895734 300.597899 15.453612 300.597899 20.569367 C 300.597899 25.690249 304.447531 28.273757 308.266406 28.273757 C 311.321507 28.273757 314.376607 26.648812 315.509455 23.404049 L 312.726033 23.404049 C 311.849485 25.08538 310.142525 25.885037 308.292036 25.885037 C 306.072475 25.885037 303.289053 24.116565 303.289053 21.204992 L 315.888779 21.204992 C 315.945165 20.953818 315.970795 20.677013 315.970795 20.374579 C 315.970795 20.215673 315.970795 20.077271 315.945165 19.913238 Z M 313.110483 18.980305 L 303.396699 18.980305 C 303.950308 16.335285 306.149365 15.26395 308.327918 15.26395 C 310.470589 15.26395 312.587631 16.304529 313.110483 18.980305 Z M 322.542337 14.956389 L 322.542337 12.870104 L 319.840931 12.870104 L 319.840931 28.002078 L 322.542337 28.002078 L 322.542337 19.913238 C 322.542337 16.99654 324.326188 15.371596 326.694403 15.371596 C 329.170265 15.371596 329.969922 17.550149 329.969922 19.636434 L 329.969922 28.002078 L 332.661076 28.002078 L 332.661076 19.610804 C 332.661076 17.186202 333.988712 15.371596 336.62348 15.371596 C 339.212113 15.371596 339.734966 17.463007 339.734966 19.559544 L 339.734966 28.002078 L 342.431246 28.002078 L 342.431246 19.523662 C 342.431246 15.756046 340.64227 12.870104 336.54659 12.870104 C 334.368036 12.895734 332.691832 13.803037 331.784529 15.453612 C 330.682437 13.367327 328.81657 12.870104 326.720033 12.870104 C 324.987443 12.870104 323.557287 13.474973 322.542337 14.956389 Z M 346.414154 9.297277 C 346.414154 10.337856 347.265071 10.860709 348.085232 10.860709 C 348.93615 10.860709 349.761437 10.337856 349.761437 9.297277 C 349.761437 8.246445 348.93615 7.749223 348.115988 7.749223 C 347.265071 7.749223 346.414154 8.272075 346.414154 9.297277 Z M 346.742218 12.946994 L 349.433372 12.946994 L 349.433372 28.002078 L 346.742218 28.002078 Z M 368.55338 22.332714 L 365.769958 22.332714 C 365.113829 24.695803 363.130064 25.859407 361.095039 25.859407 C 358.537162 25.859407 356.004914 24.116565 356.004914 20.543737 C 356.004914 16.99654 358.562792 15.26395 361.069409 15.26395 C 363.104434 15.26395 365.113829 16.422427 365.769958 18.785517 L 368.55338 18.785517 C 367.804983 14.823113 364.426944 12.870104 361.043779 12.870104 C 357.163392 12.870104 353.31376 15.402352 353.31376 20.543737 C 353.31376 25.664619 357.132636 28.222497 360.987393 28.222497 C 364.365432 28.222497 367.804983 26.320748 368.55338 22.332714 Z M 373.858798 17.406621 C 373.858798 15.868818 375.3966 15.233194 377.047175 15.233194 C 378.672119 15.233194 380.071519 15.868818 380.209921 17.186202 L 382.875445 17.186202 C 382.690909 14.074716 380.071519 12.813718 377.129191 12.813718 C 374.238123 12.813718 371.183022 14.023456 371.183022 17.463007 C 371.183022 20.794912 374.345769 21.620199 377.021545 21.727845 C 378.308173 21.779105 380.620002 22.055909 380.620002 23.706484 C 380.620002 25.46983 378.502961 25.910667 377.154821 25.910667 C 375.314584 25.910667 373.771656 25.08538 373.66401 23.434806 L 370.96773 23.434806 C 371.157392 26.951247 374.017704 28.248127 377.103561 28.248127 C 379.907487 28.248127 383.321408 27.228051 383.321408 23.76287 C 383.321408 20.374579 380.127905 19.498032 377.323979 19.308369 C 376.001469 19.221227 373.858798 19.282739 373.858798 17.406621 Z M 373.858798 17.406621 " stroke="#68c18c" stroke-width="2.063745" stroke-opacity="1" stroke-miterlimit="4"/></g><g fill="#ff914d" fill-opacity="1"><g transform="translate(9.593149, 25.361698)"><g><path d="M 10.125 -8.847656 L 3.921875 -8.847656 L 3.921875 -14.800781 L 1.804688 -14.800781 L 1.804688 0 L 3.921875 0 L 3.921875 -6.75 L 10.125 -6.75 L 10.125 0 L 12.265625 0 L 12.265625 -14.800781 L 10.125 -14.800781 Z M 10.125 -8.847656 "/></g></g></g><g fill="#ff914d" fill-opacity="1"><g transform="translate(23.654743, 25.361698)"><g><path d="M 7.167969 -14.675781 L 1.804688 -14.675781 L 1.804688 0 L 3.941406 0 L 3.941406 -4.882812 L 7.167969 -4.882812 C 10.335938 -4.882812 11.929688 -7.316406 11.929688 -9.769531 C 11.929688 -12.222656 10.335938 -14.675781 7.167969 -14.675781 Z M 7.167969 -6.980469 L 3.941406 -6.980469 L 3.941406 -12.535156 L 7.167969 -12.535156 C 8.953125 -12.535156 9.832031 -11.152344 9.832031 -9.75 C 9.832031 -8.363281 8.953125 -6.980469 7.167969 -6.980469 Z M 7.167969 -6.980469 "/></g></g></g><g fill="#ff914d" fill-opacity="1"><g transform="translate(36.102712, 25.361698)"><g><path d="M 0.816406 -7.296875 C 0.816406 -5.261719 1.699219 -3.394531 2.957031 -2.054688 C 4.234375 -0.710938 6.078125 0.105469 8.070312 0.105469 C 11.488281 0.105469 14.171875 -2.160156 15.011719 -5.492188 L 12.933594 -5.492188 C 12.179688 -3.269531 10.292969 -1.992188 8.070312 -1.992188 C 6.667969 -1.992188 5.261719 -2.578125 4.339844 -3.542969 C 3.417969 -4.507812 2.871094 -5.828125 2.871094 -7.296875 C 2.871094 -8.804688 3.4375 -10.105469 4.359375 -11.070312 C 5.28125 -12.035156 6.667969 -12.703125 8.070312 -12.703125 C 10.230469 -12.703125 12.035156 -11.53125 12.808594 -9.328125 L 14.90625 -9.328125 C 14.066406 -12.640625 11.425781 -14.800781 8.070312 -14.800781 C 6.078125 -14.800781 4.171875 -13.878906 2.894531 -12.558594 C 1.636719 -11.214844 0.816406 -9.371094 0.816406 -7.296875 Z M 0.816406 -7.296875 "/></g></g></g><g fill="#ff914d" fill-opacity="1"><g transform="translate(51.903676, 25.361698)"><g/></g></g><g fill="#ff914d" fill-opacity="1"><g transform="translate(57.121761, 25.361698)"><g><path d="M 1.445312 -14.253906 C 1.445312 -13.457031 2.097656 -13.058594 2.726562 -13.058594 C 3.375 -13.058594 4.003906 -13.457031 4.003906 -14.253906 C 4.003906 -15.050781 3.375 -15.429688 2.746094 -15.429688 C 2.097656 -15.429688 1.445312 -15.03125 1.445312 -14.253906 Z M 1.699219 -11.46875 L 3.753906 -11.46875 L 3.753906 0 L 1.699219 0 Z M 1.699219 -11.46875 "/></g></g></g><g fill="#ff914d" fill-opacity="1"><g transform="translate(62.758973, 25.361698)"><g><path d="M 3.625 -9.9375 L 3.625 -11.339844 L 1.574219 -11.339844 L 1.574219 0 L 3.625 0 L 3.625 -6.164062 C 3.625 -8.132812 4.800781 -9.683594 6.960938 -9.683594 C 9.433594 -9.683594 10 -8.21875 10 -6.078125 L 10 0 L 12.035156 0 L 12.035156 -6.101562 C 12.035156 -9.351562 10.566406 -11.507812 7.105469 -11.507812 C 5.679688 -11.507812 4.464844 -11.152344 3.625 -9.9375 Z M 3.625 -9.9375 "/></g></g></g><g fill="#ff914d" fill-opacity="1"><g transform="translate(76.338579, 25.361698)"><g/></g></g><g fill="#ff914d" fill-opacity="1"><g transform="translate(81.556664, 25.361698)"><g><path d="M 4.253906 -11.339844 L 4.253906 -13.855469 L 2.203125 -13.457031 L 2.203125 -11.339844 L 0.503906 -11.339844 L 0.503906 -9.707031 L 2.203125 -9.707031 L 2.203125 -3.332031 C 2.203125 -0.691406 3.648438 0.0625 5.871094 0.0625 C 6.164062 0.0625 6.476562 0.0429688 6.8125 0.0195312 L 6.8125 -1.699219 C 6.5 -1.675781 6.207031 -1.65625 5.953125 -1.65625 C 4.925781 -1.65625 4.253906 -1.96875 4.253906 -3.3125 L 4.253906 -9.707031 L 6.75 -9.707031 L 6.75 -11.339844 Z M 4.253906 -11.339844 "/></g></g></g><g fill="#ff914d" fill-opacity="1"><g transform="translate(88.765594, 25.361698)"><g><path d="M 3.542969 -9.9375 L 3.542969 -14.675781 L 1.507812 -14.675781 L 1.507812 0 L 3.542969 0 L 3.542969 -6.164062 C 3.542969 -8.132812 4.71875 -9.683594 6.875 -9.683594 C 9.351562 -9.683594 9.914062 -8.21875 9.914062 -6.078125 L 9.914062 0 L 11.96875 0 L 11.96875 -6.101562 C 11.96875 -9.351562 10.480469 -11.507812 7.023438 -11.507812 C 5.597656 -11.507812 4.402344 -11.152344 3.542969 -9.9375 Z M 3.542969 -9.9375 "/></g></g></g><g fill="#ff914d" fill-opacity="1"><g transform="translate(102.345201, 25.361698)"><g><path d="M 12.703125 -6.164062 C 12.472656 -9.726562 9.707031 -11.507812 6.898438 -11.507812 C 3.898438 -11.507812 1.007812 -9.558594 1.007812 -5.660156 C 1.007812 -1.761719 3.941406 0.210938 6.855469 0.210938 C 9.183594 0.210938 11.507812 -1.027344 12.367188 -3.5 L 10.25 -3.5 C 9.582031 -2.222656 8.28125 -1.613281 6.875 -1.613281 C 5.179688 -1.613281 3.0625 -2.957031 3.0625 -5.179688 L 12.664062 -5.179688 C 12.703125 -5.367188 12.726562 -5.578125 12.726562 -5.808594 C 12.726562 -5.933594 12.726562 -6.039062 12.703125 -6.164062 Z M 10.542969 -6.875 L 3.144531 -6.875 C 3.5625 -8.890625 5.242188 -9.707031 6.898438 -9.707031 C 8.53125 -9.707031 10.148438 -8.910156 10.542969 -6.875 Z M 10.542969 -6.875 "/></g></g></g><g fill="#ff914d" fill-opacity="1"><g transform="translate(116.176284, 25.361698)"><g/></g></g><g fill="#ff914d" fill-opacity="1"><g transform="translate(121.394368, 25.361698)"><g><path d="M 0.816406 -7.296875 C 0.816406 -5.261719 1.699219 -3.394531 2.957031 -2.054688 C 4.234375 -0.710938 6.078125 0.105469 8.070312 0.105469 C 11.488281 0.105469 14.171875 -2.160156 15.011719 -5.492188 L 12.933594 -5.492188 C 12.179688 -3.269531 10.292969 -1.992188 8.070312 -1.992188 C 6.667969 -1.992188 5.261719 -2.578125 4.339844 -3.542969 C 3.417969 -4.507812 2.871094 -5.828125 2.871094 -7.296875 C 2.871094 -8.804688 3.4375 -10.105469 4.359375 -11.070312 C 5.28125 -12.035156 6.667969 -12.703125 8.070312 -12.703125 C 10.230469 -12.703125 12.035156 -11.53125 12.808594 -9.328125 L 14.90625 -9.328125 C 14.066406 -12.640625 11.425781 -14.800781 8.070312 -14.800781 C 6.078125 -14.800781 4.171875 -13.878906 2.894531 -12.558594 C 1.636719 -11.214844 0.816406 -9.371094 0.816406 -7.296875 Z M 0.816406 -7.296875 "/></g></g></g><g fill="#ff914d" fill-opacity="1"><g transform="translate(137.195332, 25.361698)"><g><path d="M 1.445312 -14.253906 C 1.445312 -13.457031 2.097656 -13.058594 2.726562 -13.058594 C 3.375 -13.058594 4.003906 -13.457031 4.003906 -14.253906 C 4.003906 -15.050781 3.375 -15.429688 2.746094 -15.429688 C 2.097656 -15.429688 1.445312 -15.03125 1.445312 -14.253906 Z M 1.699219 -11.46875 L 3.753906 -11.46875 L 3.753906 0 L 1.699219 0 Z M 1.699219 -11.46875 "/></g></g></g><g fill="#ff914d" fill-opacity="1"><g transform="translate(142.832544, 25.361698)"><g><path d="M 4.253906 -11.339844 L 4.253906 -13.855469 L 2.203125 -13.457031 L 2.203125 -11.339844 L 0.503906 -11.339844 L 0.503906 -9.707031 L 2.203125 -9.707031 L 2.203125 -3.332031 C 2.203125 -0.691406 3.648438 0.0625 5.871094 0.0625 C 6.164062 0.0625 6.476562 0.0429688 6.8125 0.0195312 L 6.8125 -1.699219 C 6.5 -1.675781 6.207031 -1.65625 5.953125 -1.65625 C 4.925781 -1.65625 4.253906 -1.96875 4.253906 -3.3125 L 4.253906 -9.707031 L 6.75 -9.707031 L 6.75 -11.339844 Z M 4.253906 -11.339844 "/></g></g></g><g fill="#ff914d" fill-opacity="1"><g transform="translate(150.041475, 25.361698)"><g><path d="M 9.203125 -11.507812 L 7.253906 -6.457031 L 5.933594 -2.765625 L 4.652344 -6.476562 L 2.597656 -11.507812 L 0.417969 -11.507812 L 4.84375 -0.585938 L 3.25 3.5 L 5.429688 3.5 L 11.382812 -11.507812 Z M 9.203125 -11.507812 "/></g></g></g><g fill="#ff914d" fill-opacity="1"><g transform="translate(161.818852, 25.361698)"><g><path d="M 1.320312 -8.636719 C 0.671875 -8.636719 0.148438 -8.15625 0.148438 -7.421875 C 0.148438 -6.8125 0.671875 -6.226562 1.320312 -6.226562 C 2.054688 -6.226562 2.558594 -6.8125 2.558594 -7.421875 C 2.558594 -8.15625 2.054688 -8.636719 1.320312 -8.636719 Z M 1.320312 -2.347656 C 0.671875 -2.347656 0.148438 -1.867188 0.148438 -1.132812 C 0.148438 -0.546875 0.671875 0.0625 1.320312 0.0625 C 2.054688 0.0625 2.558594 -0.546875 2.558594 -1.132812 C 2.558594 -1.867188 2.054688 -2.347656 1.320312 -2.347656 Z M 1.320312 -2.347656 "/></g></g></g><g fill="#ff914d" fill-opacity="1"><g transform="translate(165.360451, 25.361698)"><g/></g></g><g fill="#ff914d" fill-opacity="1"><g transform="translate(170.578536, 25.361698)"><g><path d="M 7.167969 -14.675781 L 1.804688 -14.675781 L 1.804688 0 L 3.941406 0 L 3.941406 -4.882812 L 7.167969 -4.882812 C 10.335938 -4.882812 11.929688 -7.316406 11.929688 -9.769531 C 11.929688 -12.222656 10.335938 -14.675781 7.167969 -14.675781 Z M 7.167969 -6.980469 L 3.941406 -6.980469 L 3.941406 -12.535156 L 7.167969 -12.535156 C 8.953125 -12.535156 9.832031 -11.152344 9.832031 -9.75 C 9.832031 -8.363281 8.953125 -6.980469 7.167969 -6.980469 Z M 7.167969 -6.980469 "/></g></g></g><g fill="#ff914d" fill-opacity="1"><g transform="translate(183.026505, 25.361698)"><g><path d="M 13.355469 0 L 13.355469 -11.339844 L 11.300781 -11.339844 L 11.320312 -9.832031 C 10.3125 -11.195312 8.617188 -11.53125 7.210938 -11.53125 C 3.375 -11.53125 1.152344 -8.785156 1.152344 -5.722656 C 1.152344 -2.597656 3.292969 0.1875 7.253906 0.1875 C 8.65625 0.167969 10.480469 -0.292969 11.300781 -1.53125 L 11.300781 0 Z M 11.300781 -5.679688 C 11.300781 -2.957031 9.097656 -1.636719 7.210938 -1.636719 C 4.695312 -1.636719 3.207031 -3.585938 3.207031 -5.722656 C 3.207031 -7.964844 4.71875 -9.726562 7.210938 -9.726562 C 9.140625 -9.726562 11.300781 -8.386719 11.300781 -5.679688 Z M 11.300781 -5.679688 "/></g></g></g><g fill="#ff914d" fill-opacity="1"><g transform="translate(197.737749, 25.361698)"><g><path d="M 3.625 -9.9375 L 3.625 -11.339844 L 1.574219 -11.339844 L 1.574219 0 L 3.625 0 L 3.625 -6.164062 C 3.625 -8.132812 4.800781 -9.683594 6.960938 -9.683594 C 9.433594 -9.683594 10 -8.21875 10 -6.078125 L 10 0 L 12.035156 0 L 12.035156 -6.101562 C 12.035156 -9.351562 10.566406 -11.507812 7.105469 -11.507812 C 5.679688 -11.507812 4.464844 -11.152344 3.625 -9.9375 Z M 3.625 -9.9375 "/></g></g></g><g fill="#ff914d" fill-opacity="1"><g transform="translate(211.317344, 25.361698)"><g><path d="M 12.726562 -14.675781 L 10.671875 -14.675781 L 10.671875 -9.875 C 9.683594 -11.214844 8.257812 -11.53125 6.855469 -11.53125 C 3.019531 -11.53125 0.839844 -8.972656 0.839844 -5.722656 C 0.839844 -2.347656 2.914062 0.1875 6.875 0.1875 C 8.300781 0.167969 9.851562 -0.292969 10.671875 -1.53125 L 10.671875 0 L 12.726562 0 Z M 10.671875 -5.679688 C 10.671875 -2.957031 8.761719 -1.636719 6.835938 -1.636719 C 4.339844 -1.636719 2.894531 -3.355469 2.894531 -5.679688 C 2.894531 -7.714844 4.339844 -9.726562 6.855469 -9.726562 C 8.761719 -9.726562 10.671875 -8.386719 10.671875 -5.679688 Z M 10.671875 -5.679688 "/></g></g></g><g fill="#ff914d" fill-opacity="1"><g transform="translate(225.651368, 25.361698)"><g><path d="M 12.703125 -6.164062 C 12.472656 -9.726562 9.707031 -11.507812 6.898438 -11.507812 C 3.898438 -11.507812 1.007812 -9.558594 1.007812 -5.660156 C 1.007812 -1.761719 3.941406 0.210938 6.855469 0.210938 C 9.183594 0.210938 11.507812 -1.027344 12.367188 -3.5 L 10.25 -3.5 C 9.582031 -2.222656 8.28125 -1.613281 6.875 -1.613281 C 5.179688 -1.613281 3.0625 -2.957031 3.0625 -5.179688 L 12.664062 -5.179688 C 12.703125 -5.367188 12.726562 -5.578125 12.726562 -5.808594 C 12.726562 -5.933594 12.726562 -6.039062 12.703125 -6.164062 Z M 10.542969 -6.875 L 3.144531 -6.875 C 3.5625 -8.890625 5.242188 -9.707031 6.898438 -9.707031 C 8.53125 -9.707031 10.148438 -8.910156 10.542969 -6.875 Z M 10.542969 -6.875 "/></g></g></g><g fill="#ff914d" fill-opacity="1"><g transform="translate(239.482463, 25.361698)"><g><path d="M 3.898438 -9.9375 L 3.898438 -11.53125 L 1.84375 -11.53125 L 1.84375 0 L 3.898438 0 L 3.898438 -6.164062 C 3.898438 -8.386719 5.261719 -9.621094 7.066406 -9.621094 C 8.953125 -9.621094 9.558594 -7.964844 9.558594 -6.371094 L 9.558594 0 L 11.613281 0 L 11.613281 -6.394531 C 11.613281 -8.238281 12.621094 -9.621094 14.632812 -9.621094 C 16.601562 -9.621094 17 -8.027344 17 -6.4375 L 17 0 L 19.054688 0 L 19.054688 -6.457031 C 19.054688 -9.328125 17.695312 -11.53125 14.570312 -11.53125 C 12.914062 -11.507812 11.636719 -10.816406 10.941406 -9.558594 C 10.105469 -11.152344 8.679688 -11.53125 7.085938 -11.53125 C 5.765625 -11.53125 4.675781 -11.070312 3.898438 -9.9375 Z M 3.898438 -9.9375 "/></g></g></g><g fill="#ff914d" fill-opacity="1"><g transform="translate(260.124291, 25.361698)"><g><path d="M 1.445312 -14.253906 C 1.445312 -13.457031 2.097656 -13.058594 2.726562 -13.058594 C 3.375 -13.058594 4.003906 -13.457031 4.003906 -14.253906 C 4.003906 -15.050781 3.375 -15.429688 2.746094 -15.429688 C 2.097656 -15.429688 1.445312 -15.03125 1.445312 -14.253906 Z M 1.699219 -11.46875 L 3.753906 -11.46875 L 3.753906 0 L 1.699219 0 Z M 1.699219 -11.46875 "/></g></g></g><g fill="#ff914d" fill-opacity="1"><g transform="translate(265.761491, 25.361698)"><g><path d="M 12.683594 -4.320312 L 10.566406 -4.320312 C 10.0625 -2.515625 8.554688 -1.636719 7 -1.636719 C 5.050781 -1.636719 3.125 -2.957031 3.125 -5.679688 C 3.125 -8.386719 5.074219 -9.707031 6.980469 -9.707031 C 8.53125 -9.707031 10.0625 -8.824219 10.566406 -7.023438 L 12.683594 -7.023438 C 12.117188 -10.042969 9.539062 -11.53125 6.960938 -11.53125 C 4.003906 -11.53125 1.070312 -9.601562 1.070312 -5.679688 C 1.070312 -1.78125 3.984375 0.167969 6.917969 0.167969 C 9.496094 0.167969 12.117188 -1.277344 12.683594 -4.320312 Z M 12.683594 -4.320312 "/></g></g></g><g fill="#ff914d" fill-opacity="1"><g transform="translate(279.487795, 25.361698)"><g><path d="M 2.996094 -8.070312 C 2.996094 -9.246094 4.171875 -9.726562 5.429688 -9.726562 C 6.667969 -9.726562 7.734375 -9.246094 7.839844 -8.238281 L 9.875 -8.238281 C 9.726562 -10.609375 7.734375 -11.570312 5.492188 -11.570312 C 3.292969 -11.570312 0.964844 -10.648438 0.964844 -8.027344 C 0.964844 -5.492188 3.375 -4.863281 5.410156 -4.78125 C 6.394531 -4.738281 8.15625 -4.527344 8.15625 -3.269531 C 8.15625 -1.929688 6.539062 -1.59375 5.511719 -1.59375 C 4.109375 -1.59375 2.933594 -2.222656 2.851562 -3.480469 L 0.796875 -3.480469 C 0.945312 -0.796875 3.125 0.1875 5.472656 0.1875 C 7.609375 0.1875 10.210938 -0.585938 10.210938 -3.226562 C 10.210938 -5.808594 7.777344 -6.476562 5.640625 -6.625 C 4.632812 -6.6875 2.996094 -6.644531 2.996094 -8.070312 Z M 2.996094 -8.070312 "/></g></g></g></svg>