<svg xmlns="http://www.w3.org/2000/svg" xmlns:xlink="http://www.w3.org/1999/xlink" width="200" zoomAndPan="magnify" viewBox="0 0 150 149.999998" height="200" preserveAspectRatio="xMidYMid meet" version="1.0"><defs><g/><clipPath id="5aa21e9279"><path d="M 10 96 L 138 96 L 138 118.59375 L 10 118.59375 Z M 10 96 " clip-rule="nonzero"/></clipPath><clipPath id="6feb7d4c4b"><path d="M 9.199219 95 L 140 95 L 140 118.59375 L 9.199219 118.59375 Z M 9.199219 95 " clip-rule="nonzero"/></clipPath><clipPath id="2f0548da0d"><path d="M 125 95 L 140.449219 95 L 140.449219 118.59375 L 125 118.59375 Z M 125 95 " clip-rule="nonzero"/></clipPath><clipPath id="46be7e8592"><path d="M 9.199219 95 L 25 95 L 25 118.59375 L 9.199219 118.59375 Z M 9.199219 95 " clip-rule="nonzero"/></clipPath><clipPath id="ba52d15716"><path d="M 9.199219 18.84375 L 140.449219 18.84375 L 140.449219 118.59375 L 9.199219 118.59375 Z M 9.199219 18.84375 " clip-rule="nonzero"/></clipPath><clipPath id="372e8da494"><path d="M 87 18.84375 L 92 18.84375 L 92 24 L 87 24 Z M 87 18.84375 " clip-rule="nonzero"/></clipPath><clipPath id="be58514df5"><path d="M 75 18.84375 L 80 18.84375 L 80 24 L 75 24 Z M 75 18.84375 " clip-rule="nonzero"/></clipPath><clipPath id="b990925d57"><path d="M 64 18.84375 L 69 18.84375 L 69 24 L 64 24 Z M 64 18.84375 " clip-rule="nonzero"/></clipPath></defs><g clip-path="url(#5aa21e9279)"><path fill="#3a87c4" d="M 137.738281 96.789062 L 125.933594 118.59375 L 21.925781 118.59375 L 10.121094 96.789062 Z M 137.738281 96.789062 " fill-opacity="1" fill-rule="nonzero"/></g><g clip-path="url(#6feb7d4c4b)"><path fill="#000080" d="M 136.855469 96.789062 L 125.9375 116.960938 L 22.894531 116.960938 L 11.976562 96.789062 L 136.855469 96.789062 M 139.59375 95.152344 L 9.238281 95.152344 L 21.925781 118.59375 L 126.90625 118.59375 Z M 139.59375 95.152344 " fill-opacity="1" fill-rule="nonzero"/></g><g clip-path="url(#2f0548da0d)"><path fill="#21356a" d="M 127.722656 118.59375 L 125.191406 118.59375 L 137.679688 95.152344 L 140.410156 95.152344 Z M 127.722656 118.59375 " fill-opacity="1" fill-rule="nonzero"/></g><g clip-path="url(#46be7e8592)"><path fill="#21356a" d="M 21.925781 118.59375 L 24.453125 118.59375 L 11.964844 95.152344 L 9.238281 95.152344 Z M 21.925781 118.59375 " fill-opacity="1" fill-rule="nonzero"/></g><path fill="#21356a" d="M 40.5 51.472656 L 54.027344 51.472656 C 54.027344 51.472656 56.414062 51.65625 56.414062 54.234375 C 56.414062 56.8125 54.027344 56.871094 54.027344 56.871094 L 37.558594 56.871094 C 37.558594 56.871094 34.742188 54.050781 33.886719 52.453125 C 33.027344 50.855469 31.253906 48.527344 31.253906 48.527344 C 31.253906 48.527344 25.867188 53.742188 24.765625 57.546875 C 23.664062 61.351562 23.847656 66.382812 23.847656 66.382812 L 37.988281 66.382812 C 37.988281 66.382812 39.425781 66.292969 40.132812 66.996094 C 40.835938 67.703125 41.417969 69.390625 41.417969 69.390625 L 41.417969 91.113281 C 41.417969 91.113281 40.683594 94.304688 37.253906 94.304688 C 33.824219 94.304688 33.089844 91.480469 33.089844 91.480469 L 33.089844 75.097656 C 33.089844 75.097656 18.519531 75.097656 18.519531 75.097656 C 18.519531 75.097656 17.355469 75.035156 16.316406 73.75 C 15.273438 72.460938 15.03125 70.742188 15.03125 68.347656 C 15.03125 65.957031 15.214844 56.625 19.4375 49.511719 C 23.664062 42.390625 29.046875 37.851562 32.664062 37.851562 C 37.253906 37.851562 40.5 51.472656 40.5 51.472656 Z M 40.5 51.472656 " fill-opacity="1" fill-rule="nonzero"/><path fill="#21356a" d="M 51.183594 34.78125 C 51.183594 35.226562 51.140625 35.667969 51.054688 36.105469 C 50.964844 36.539062 50.835938 36.964844 50.667969 37.375 C 50.496094 37.789062 50.289062 38.179688 50.042969 38.546875 C 49.796875 38.917969 49.515625 39.261719 49.203125 39.574219 C 48.886719 39.890625 48.546875 40.171875 48.175781 40.417969 C 47.808594 40.667969 47.417969 40.875 47.007812 41.046875 C 46.597656 41.214844 46.171875 41.34375 45.738281 41.433594 C 45.300781 41.519531 44.863281 41.5625 44.417969 41.5625 C 43.972656 41.5625 43.535156 41.519531 43.097656 41.433594 C 42.664062 41.34375 42.238281 41.214844 41.828125 41.046875 C 41.417969 40.875 41.027344 40.667969 40.660156 40.417969 C 40.289062 40.171875 39.949219 39.890625 39.632812 39.574219 C 39.320312 39.261719 39.039062 38.917969 38.792969 38.546875 C 38.546875 38.179688 38.335938 37.789062 38.167969 37.375 C 37.996094 36.964844 37.867188 36.539062 37.78125 36.105469 C 37.695312 35.667969 37.652344 35.226562 37.652344 34.78125 C 37.652344 34.335938 37.695312 33.894531 37.78125 33.457031 C 37.867188 33.019531 37.996094 32.597656 38.167969 32.183594 C 38.335938 31.773438 38.546875 31.382812 38.792969 31.011719 C 39.039062 30.644531 39.320312 30.300781 39.632812 29.984375 C 39.949219 29.671875 40.289062 29.390625 40.660156 29.140625 C 41.027344 28.894531 41.417969 28.683594 41.828125 28.515625 C 42.238281 28.34375 42.664062 28.214844 43.097656 28.128906 C 43.535156 28.042969 43.972656 28 44.417969 28 C 44.863281 28 45.300781 28.042969 45.738281 28.128906 C 46.171875 28.214844 46.597656 28.34375 47.007812 28.515625 C 47.417969 28.683594 47.808594 28.894531 48.175781 29.140625 C 48.546875 29.390625 48.886719 29.671875 49.203125 29.984375 C 49.515625 30.300781 49.796875 30.644531 50.042969 31.011719 C 50.289062 31.382812 50.496094 31.773438 50.667969 32.183594 C 50.835938 32.597656 50.964844 33.019531 51.054688 33.457031 C 51.140625 33.894531 51.183594 34.335938 51.183594 34.78125 Z M 51.183594 34.78125 " fill-opacity="1" fill-rule="nonzero"/><path fill="#21356a" d="M 58.128906 60.367188 L 49.988281 60.367188 C 49.988281 60.367188 48.949219 60.921875 48.949219 61.535156 C 48.949219 62.148438 49.746094 62.515625 49.746094 62.515625 L 60.089844 62.515625 C 60.089844 62.515625 63.703125 53.066406 63.703125 53.066406 C 63.703125 53.066406 64.070312 51.898438 62.96875 51.347656 C 61.867188 50.792969 61.316406 51.960938 61.316406 51.960938 L 58.132812 60.367188 Z M 58.128906 60.367188 " fill-opacity="1" fill-rule="nonzero"/><path fill="#21356a" d="M 109.148438 51.472656 L 95.621094 51.472656 C 95.621094 51.472656 93.234375 51.65625 93.234375 54.234375 C 93.234375 56.8125 95.621094 56.871094 95.621094 56.871094 L 112.089844 56.871094 C 112.089844 56.871094 114.902344 54.050781 115.761719 52.453125 C 116.617188 50.855469 118.390625 48.527344 118.390625 48.527344 C 118.390625 48.527344 123.777344 53.742188 124.878906 57.546875 C 125.980469 61.351562 125.796875 66.382812 125.796875 66.382812 L 111.65625 66.382812 C 111.65625 66.382812 110.21875 66.292969 109.515625 66.996094 C 108.808594 67.703125 108.230469 69.390625 108.230469 69.390625 L 108.230469 91.113281 C 108.230469 91.113281 108.960938 94.304688 112.394531 94.304688 C 115.820312 94.304688 116.558594 91.480469 116.558594 91.480469 L 116.558594 75.097656 L 131.125 75.097656 C 131.125 75.097656 132.289062 75.035156 133.328125 73.75 C 134.371094 72.460938 134.617188 70.742188 134.617188 68.347656 C 134.617188 65.957031 134.429688 56.625 130.207031 49.511719 C 125.984375 42.390625 120.597656 37.851562 116.984375 37.851562 C 112.394531 37.851562 109.148438 51.472656 109.148438 51.472656 Z M 109.148438 51.472656 " fill-opacity="1" fill-rule="nonzero"/><path fill="#21356a" d="M 111.996094 34.78125 C 111.996094 35.226562 111.953125 35.667969 111.867188 36.105469 C 111.777344 36.539062 111.652344 36.964844 111.480469 37.375 C 111.3125 37.789062 111.101562 38.179688 110.855469 38.546875 C 110.609375 38.917969 110.328125 39.261719 110.015625 39.574219 C 109.699219 39.890625 109.359375 40.171875 108.988281 40.417969 C 108.621094 40.667969 108.230469 40.875 107.820312 41.046875 C 107.410156 41.214844 106.984375 41.34375 106.550781 41.433594 C 106.113281 41.519531 105.675781 41.5625 105.230469 41.5625 C 104.785156 41.5625 104.347656 41.519531 103.910156 41.433594 C 103.476562 41.34375 103.050781 41.214844 102.640625 41.046875 C 102.230469 40.875 101.839844 40.667969 101.472656 40.417969 C 101.101562 40.171875 100.761719 39.890625 100.445312 39.574219 C 100.132812 39.261719 99.851562 38.917969 99.605469 38.546875 C 99.359375 38.179688 99.152344 37.789062 98.980469 37.375 C 98.808594 36.964844 98.683594 36.539062 98.59375 36.105469 C 98.507812 35.667969 98.464844 35.226562 98.464844 34.78125 C 98.464844 34.335938 98.507812 33.894531 98.59375 33.457031 C 98.683594 33.019531 98.808594 32.597656 98.980469 32.183594 C 99.152344 31.773438 99.359375 31.382812 99.605469 31.011719 C 99.851562 30.644531 100.132812 30.300781 100.445312 29.984375 C 100.761719 29.671875 101.101562 29.390625 101.472656 29.140625 C 101.839844 28.894531 102.230469 28.683594 102.640625 28.515625 C 103.050781 28.34375 103.476562 28.214844 103.910156 28.128906 C 104.347656 28.042969 104.785156 28 105.230469 28 C 105.675781 28 106.113281 28.042969 106.550781 28.128906 C 106.984375 28.214844 107.410156 28.34375 107.820312 28.515625 C 108.230469 28.683594 108.621094 28.894531 108.988281 29.140625 C 109.359375 29.390625 109.699219 29.671875 110.015625 29.984375 C 110.328125 30.300781 110.609375 30.644531 110.855469 31.011719 C 111.101562 31.382812 111.3125 31.773438 111.480469 32.183594 C 111.652344 32.597656 111.777344 33.019531 111.867188 33.457031 C 111.953125 33.894531 111.996094 34.335938 111.996094 34.78125 Z M 111.996094 34.78125 " fill-opacity="1" fill-rule="nonzero"/><path fill="#21356a" d="M 91.519531 60.367188 L 99.660156 60.367188 C 99.660156 60.367188 100.699219 60.921875 100.699219 61.535156 C 100.699219 62.148438 99.902344 62.515625 99.902344 62.515625 L 89.558594 62.515625 L 85.945312 53.066406 C 85.945312 53.066406 85.578125 51.898438 86.679688 51.347656 C 87.78125 50.792969 88.332031 51.960938 88.332031 51.960938 L 91.515625 60.367188 Z M 91.519531 60.367188 " fill-opacity="1" fill-rule="nonzero"/><g clip-path="url(#ba52d15716)"><path stroke-linecap="butt" transform="matrix(0.271802, 0, 0, 0.272467, 9.238254, 18.843983)" fill="none" stroke-linejoin="miter" d="M 214.065817 77.689313 C 201.964888 86.563684 194.103596 100.885972 194.103596 117.043349 C 194.103596 143.981867 215.934131 165.830883 242.895346 165.830883 C 269.842188 165.830883 291.687095 143.996203 291.687095 117.043349 C 291.687095 100.341181 283.294052 85.60313 270.488912 76.814779 " stroke="#3a87c4" stroke-width="24" stroke-opacity="1" stroke-miterlimit="10"/></g><path fill="#3a87c4" d="M 73.21875 48.175781 L 77.390625 48.175781 L 77.390625 52.355469 L 73.21875 52.355469 Z M 73.21875 48.175781 " fill-opacity="1" fill-rule="nonzero"/><path fill="#3a87c4" d="M 75.625 42.414062 L 79.796875 42.414062 L 79.796875 46.59375 L 75.625 46.59375 Z M 75.625 42.414062 " fill-opacity="1" fill-rule="nonzero"/><path fill="#3a87c4" d="M 70.347656 42.414062 L 74.515625 42.414062 L 74.515625 46.59375 L 70.347656 46.59375 Z M 70.347656 42.414062 " fill-opacity="1" fill-rule="nonzero"/><path fill="#3a87c4" d="M 77.707031 36.652344 L 81.878906 36.652344 L 81.878906 40.832031 L 77.707031 40.832031 Z M 77.707031 36.652344 " fill-opacity="1" fill-rule="nonzero"/><path fill="#3a87c4" d="M 68.261719 36.652344 L 72.433594 36.652344 L 72.433594 40.832031 L 68.261719 40.832031 Z M 68.261719 36.652344 " fill-opacity="1" fill-rule="nonzero"/><path fill="#3a87c4" d="M 80.632812 30.804688 L 84.800781 30.804688 L 84.800781 34.984375 L 80.632812 34.984375 Z M 80.632812 30.804688 " fill-opacity="1" fill-rule="nonzero"/><path fill="#3a87c4" d="M 71.136719 30.804688 L 75.308594 30.804688 L 75.308594 34.984375 L 71.136719 34.984375 Z M 71.136719 30.804688 " fill-opacity="1" fill-rule="nonzero"/><path fill="#3a87c4" d="M 65.152344 30.804688 L 69.324219 30.804688 L 69.324219 34.984375 L 65.152344 34.984375 Z M 65.152344 30.804688 " fill-opacity="1" fill-rule="nonzero"/><path fill="#3a87c4" d="M 84.464844 24.707031 L 88.632812 24.707031 L 88.632812 28.886719 L 84.464844 28.886719 Z M 84.464844 24.707031 " fill-opacity="1" fill-rule="nonzero"/><path fill="#3a87c4" d="M 79.019531 24.707031 L 83.191406 24.707031 L 83.191406 28.886719 L 79.019531 28.886719 Z M 79.019531 24.707031 " fill-opacity="1" fill-rule="nonzero"/><path fill="#3a87c4" d="M 73.21875 24.707031 L 77.390625 24.707031 L 77.390625 28.886719 L 73.21875 28.886719 Z M 73.21875 24.707031 " fill-opacity="1" fill-rule="nonzero"/><path fill="#3a87c4" d="M 61.675781 24.707031 L 65.84375 24.707031 L 65.84375 28.886719 L 61.675781 28.886719 Z M 61.675781 24.707031 " fill-opacity="1" fill-rule="nonzero"/><g clip-path="url(#372e8da494)"><path fill="#3a87c4" d="M 87.640625 18.84375 L 91.8125 18.84375 L 91.8125 23.023438 L 87.640625 23.023438 Z M 87.640625 18.84375 " fill-opacity="1" fill-rule="nonzero"/></g><g clip-path="url(#be58514df5)"><path fill="#3a87c4" d="M 75.625 18.84375 L 79.796875 18.84375 L 79.796875 23.023438 L 75.625 23.023438 Z M 75.625 18.84375 " fill-opacity="1" fill-rule="nonzero"/></g><g clip-path="url(#b990925d57)"><path fill="#3a87c4" d="M 64.597656 18.84375 L 68.769531 18.84375 L 68.769531 23.023438 L 64.597656 23.023438 Z M 64.597656 18.84375 " fill-opacity="1" fill-rule="nonzero"/></g><g fill="#ffffff" fill-opacity="1"><g transform="translate(23.177001, 112.85236)"><g><path d="M 0.203125 0 L 0.203125 -0.625 L 1.1875 -0.859375 L 1.1875 -10.609375 L 0.203125 -10.828125 L 0.203125 -11.453125 L 3.984375 -11.453125 L 3.984375 -10.828125 L 3 -10.609375 L 3 -6.359375 L 6.140625 -6.359375 L 6.140625 -10.609375 L 5.15625 -10.828125 L 5.15625 -11.453125 L 8.953125 -11.453125 L 8.953125 -10.828125 L 7.96875 -10.609375 L 7.96875 -0.859375 L 8.953125 -0.625 L 8.953125 0 L 5.15625 0 L 5.15625 -0.625 L 6.140625 -0.859375 L 6.140625 -5.421875 L 3 -5.421875 L 3 -0.859375 L 3.984375 -0.625 L 3.984375 0 Z M 0.203125 0 "/></g></g></g><g fill="#ffffff" fill-opacity="1"><g transform="translate(32.918083, 112.85236)"><g><path d="M 2.453125 -0.625 L 2.453125 0 L 0.109375 0 L 0.109375 -0.625 L 0.6875 -0.859375 L 3.4375 -11.546875 L 5.09375 -11.546875 L 7.828125 -0.859375 L 8.40625 -0.625 L 8.40625 0 L 4.984375 0 L 4.984375 -0.625 L 5.875 -0.859375 L 5.140625 -3.8125 L 2.171875 -3.8125 L 1.46875 -0.859375 Z M 3.6875 -9.828125 L 2.40625 -4.765625 L 4.921875 -4.765625 Z M 3.6875 -9.828125 "/></g></g></g><g fill="#ffffff" fill-opacity="1"><g transform="translate(42.004188, 112.85236)"><g><path d="M 4.6875 0.171875 C 3.394531 0.171875 2.382812 -0.335938 1.65625 -1.359375 C 0.9375 -2.378906 0.578125 -3.789062 0.578125 -5.59375 C 0.578125 -7.550781 0.921875 -9.039062 1.609375 -10.0625 C 2.296875 -11.082031 3.316406 -11.59375 4.671875 -11.59375 C 5.566406 -11.59375 6.492188 -11.398438 7.453125 -11.015625 L 7.484375 -8.265625 L 6.96875 -8.265625 L 6.8125 -9.921875 C 6.300781 -10.429688 5.710938 -10.6875 5.046875 -10.6875 C 4.160156 -10.6875 3.507812 -10.273438 3.09375 -9.453125 C 2.6875 -8.628906 2.484375 -7.351562 2.484375 -5.625 C 2.484375 -4.019531 2.695312 -2.796875 3.125 -1.953125 C 3.550781 -1.117188 4.175781 -0.703125 5 -0.703125 C 5.425781 -0.703125 5.800781 -0.785156 6.125 -0.953125 C 6.457031 -1.128906 6.710938 -1.335938 6.890625 -1.578125 L 7.078125 -3.453125 L 7.59375 -3.453125 L 7.5625 -0.546875 C 7.21875 -0.347656 6.769531 -0.175781 6.21875 -0.03125 C 5.664062 0.101562 5.15625 0.171875 4.6875 0.171875 Z M 4.6875 0.171875 "/></g></g></g><g fill="#ffffff" fill-opacity="1"><g transform="translate(51.090293, 112.85236)"><g><path d="M 8.4375 -11.453125 L 8.4375 -10.828125 L 7.5 -10.609375 L 4.953125 -7.265625 L 8.34375 -0.859375 L 9.0625 -0.625 L 9.0625 0 L 6.546875 0 L 3.671875 -5.515625 L 3 -4.671875 L 3 -0.859375 L 4.109375 -0.625 L 4.109375 0 L 0.203125 0 L 0.203125 -0.625 L 1.1875 -0.859375 L 1.1875 -10.609375 L 0.203125 -10.828125 L 0.203125 -11.453125 L 4 -11.453125 L 4 -10.828125 L 3 -10.609375 L 3 -5.953125 L 6.515625 -10.609375 L 5.796875 -10.828125 L 5.796875 -11.453125 Z M 8.4375 -11.453125 "/></g></g></g><g fill="#ffffff" fill-opacity="1"><g transform="translate(60.831375, 112.85236)"><g><path d="M 0.203125 0 L 0.203125 -0.625 L 1.1875 -0.859375 L 1.1875 -10.609375 L 0.203125 -10.828125 L 0.203125 -11.453125 L 3.984375 -11.453125 L 3.984375 -10.828125 L 3 -10.609375 L 3 -6.359375 L 6.140625 -6.359375 L 6.140625 -10.609375 L 5.15625 -10.828125 L 5.15625 -11.453125 L 8.953125 -11.453125 L 8.953125 -10.828125 L 7.96875 -10.609375 L 7.96875 -0.859375 L 8.953125 -0.625 L 8.953125 0 L 5.15625 0 L 5.15625 -0.625 L 6.140625 -0.859375 L 6.140625 -5.421875 L 3 -5.421875 L 3 -0.859375 L 3.984375 -0.625 L 3.984375 0 Z M 0.203125 0 "/></g></g></g><g fill="#ffffff" fill-opacity="1"><g transform="translate(70.572454, 112.85236)"><g><path d="M 5 -8.0625 C 5 -8.976562 4.882812 -9.613281 4.65625 -9.96875 C 4.425781 -10.332031 4.023438 -10.515625 3.453125 -10.515625 L 3 -10.515625 L 3 -5.4375 L 3.484375 -5.4375 C 4.015625 -5.4375 4.398438 -5.632812 4.640625 -6.03125 C 4.878906 -6.425781 5 -7.101562 5 -8.0625 Z M 3 -4.5 L 3 -0.859375 L 4.28125 -0.625 L 4.28125 0 L 0.28125 0 L 0.28125 -0.625 L 1.1875 -0.859375 L 1.1875 -10.609375 L 0.203125 -10.828125 L 0.203125 -11.453125 L 3.59375 -11.453125 C 4.6875 -11.453125 5.503906 -11.179688 6.046875 -10.640625 C 6.585938 -10.097656 6.859375 -9.242188 6.859375 -8.078125 C 6.859375 -5.691406 5.914062 -4.5 4.03125 -4.5 Z M 3 -4.5 "/></g></g></g><g fill="#ffffff" fill-opacity="1"><g transform="translate(78.348604, 112.85236)"><g><path d="M 4.6875 0.171875 C 3.394531 0.171875 2.382812 -0.335938 1.65625 -1.359375 C 0.9375 -2.378906 0.578125 -3.789062 0.578125 -5.59375 C 0.578125 -7.550781 0.921875 -9.039062 1.609375 -10.0625 C 2.296875 -11.082031 3.316406 -11.59375 4.671875 -11.59375 C 5.566406 -11.59375 6.492188 -11.398438 7.453125 -11.015625 L 7.484375 -8.265625 L 6.96875 -8.265625 L 6.8125 -9.921875 C 6.300781 -10.429688 5.710938 -10.6875 5.046875 -10.6875 C 4.160156 -10.6875 3.507812 -10.273438 3.09375 -9.453125 C 2.6875 -8.628906 2.484375 -7.351562 2.484375 -5.625 C 2.484375 -4.019531 2.695312 -2.796875 3.125 -1.953125 C 3.550781 -1.117188 4.175781 -0.703125 5 -0.703125 C 5.425781 -0.703125 5.800781 -0.785156 6.125 -0.953125 C 6.457031 -1.128906 6.710938 -1.335938 6.890625 -1.578125 L 7.078125 -3.453125 L 7.59375 -3.453125 L 7.5625 -0.546875 C 7.21875 -0.347656 6.769531 -0.175781 6.21875 -0.03125 C 5.664062 0.101562 5.15625 0.171875 4.6875 0.171875 Z M 4.6875 0.171875 "/></g></g></g><g fill="#ffffff" fill-opacity="1"><g transform="translate(87.434707, 112.85236)"><g><path d="M 1.46875 0.25 C 1.207031 0.25 0.984375 0.113281 0.796875 -0.15625 C 0.609375 -0.4375 0.515625 -0.773438 0.515625 -1.171875 C 0.515625 -1.566406 0.601562 -1.898438 0.78125 -2.171875 C 0.96875 -2.453125 1.195312 -2.59375 1.46875 -2.59375 C 1.726562 -2.59375 1.953125 -2.453125 2.140625 -2.171875 C 2.328125 -1.898438 2.421875 -1.566406 2.421875 -1.171875 C 2.421875 -0.773438 2.328125 -0.4375 2.140625 -0.15625 C 1.960938 0.113281 1.738281 0.25 1.46875 0.25 Z M 1.46875 0.25 "/></g></g></g><g fill="#ffffff" fill-opacity="1"><g transform="translate(90.964996, 112.85236)"><g><path d="M 2.484375 -5.75 C 2.484375 -3.925781 2.648438 -2.625 2.984375 -1.84375 C 3.316406 -1.070312 3.847656 -0.6875 4.578125 -0.6875 C 5.304688 -0.6875 5.835938 -1.078125 6.171875 -1.859375 C 6.503906 -2.640625 6.671875 -3.9375 6.671875 -5.75 C 6.671875 -7.550781 6.503906 -8.828125 6.171875 -9.578125 C 5.835938 -10.335938 5.304688 -10.71875 4.578125 -10.71875 C 3.847656 -10.71875 3.316406 -10.335938 2.984375 -9.578125 C 2.648438 -8.828125 2.484375 -7.550781 2.484375 -5.75 Z M 0.578125 -5.75 C 0.578125 -9.644531 1.910156 -11.59375 4.578125 -11.59375 C 5.898438 -11.59375 6.894531 -11.097656 7.5625 -10.109375 C 8.238281 -9.117188 8.578125 -7.664062 8.578125 -5.75 C 8.578125 -3.800781 8.234375 -2.328125 7.546875 -1.328125 C 6.867188 -0.328125 5.878906 0.171875 4.578125 0.171875 C 3.273438 0.171875 2.28125 -0.320312 1.59375 -1.3125 C 0.914062 -2.3125 0.578125 -3.789062 0.578125 -5.75 Z M 0.578125 -5.75 "/></g></g></g><g fill="#ffffff" fill-opacity="1"><g transform="translate(100.706075, 112.85236)"><g><path d="M 3 -4.859375 L 3 -0.859375 L 4 -0.625 L 4 0 L 0.28125 0 L 0.28125 -0.625 L 1.1875 -0.859375 L 1.1875 -10.609375 L 0.203125 -10.828125 L 0.203125 -11.453125 L 3.890625 -11.453125 C 5.015625 -11.453125 5.859375 -11.191406 6.421875 -10.671875 C 6.984375 -10.160156 7.265625 -9.351562 7.265625 -8.25 C 7.265625 -6.613281 6.742188 -5.5625 5.703125 -5.09375 L 7.765625 -0.859375 L 8.59375 -0.625 L 8.59375 0 L 6.109375 0 L 3.953125 -4.859375 Z M 5.46875 -8.234375 C 5.46875 -9.085938 5.347656 -9.679688 5.109375 -10.015625 C 4.867188 -10.347656 4.4375 -10.515625 3.8125 -10.515625 L 3 -10.515625 L 3 -5.796875 L 3.84375 -5.796875 C 4.425781 -5.796875 4.84375 -5.976562 5.09375 -6.34375 C 5.34375 -6.707031 5.46875 -7.335938 5.46875 -8.234375 Z M 5.46875 -8.234375 "/></g></g></g><g fill="#ffffff" fill-opacity="1"><g transform="translate(109.792178, 112.85236)"><g><path d="M 8.078125 -0.59375 C 7.597656 -0.363281 7.046875 -0.175781 6.421875 -0.03125 C 5.796875 0.101562 5.234375 0.171875 4.734375 0.171875 C 3.890625 0.171875 3.15625 -0.0546875 2.53125 -0.515625 C 1.90625 -0.972656 1.421875 -1.632812 1.078125 -2.5 C 0.742188 -3.375 0.578125 -4.40625 0.578125 -5.59375 C 0.578125 -7.519531 0.941406 -9 1.671875 -10.03125 C 2.410156 -11.070312 3.46875 -11.59375 4.84375 -11.59375 C 5.175781 -11.59375 5.476562 -11.570312 5.75 -11.53125 C 6.019531 -11.488281 6.273438 -11.429688 6.515625 -11.359375 C 6.753906 -11.296875 7.191406 -11.128906 7.828125 -10.859375 L 7.828125 -8.234375 L 7.3125 -8.234375 L 7.171875 -9.71875 C 6.867188 -10.019531 6.535156 -10.253906 6.171875 -10.421875 C 5.804688 -10.597656 5.429688 -10.6875 5.046875 -10.6875 C 4.148438 -10.6875 3.5 -10.273438 3.09375 -9.453125 C 2.6875 -8.628906 2.484375 -7.347656 2.484375 -5.609375 C 2.484375 -4.003906 2.695312 -2.785156 3.125 -1.953125 C 3.5625 -1.117188 4.1875 -0.703125 5 -0.703125 C 5.445312 -0.703125 5.867188 -0.804688 6.265625 -1.015625 L 6.265625 -4.328125 L 5.28125 -4.546875 L 5.28125 -5.171875 L 8.828125 -5.171875 L 8.828125 -4.546875 L 8.078125 -4.328125 Z M 8.078125 -0.59375 "/></g></g></g></svg>