<svg xmlns="http://www.w3.org/2000/svg" xmlns:xlink="http://www.w3.org/1999/xlink" width="200" zoomAndPan="magnify" viewBox="0 0 150 93.749996" height="125" preserveAspectRatio="xMidYMid meet" version="1.0"><defs><clipPath id="3c3732652f"><path d="M 9 26 L 56 26 L 56 87.964844 L 9 87.964844 Z M 9 26 " clip-rule="nonzero"/></clipPath><clipPath id="4b07b487f9"><path d="M 95 26 L 141 26 L 141 87.964844 L 95 87.964844 Z M 95 26 " clip-rule="nonzero"/></clipPath><clipPath id="b02caf8eef"><path d="M 3.636719 5.683594 L 146.507812 5.683594 L 146.507812 87.964844 L 3.636719 87.964844 Z M 3.636719 5.683594 " clip-rule="nonzero"/></clipPath><clipPath id="1e38ddf45b"><path d="M 89 5.683594 L 94 5.683594 L 94 11 L 89 11 Z M 89 5.683594 " clip-rule="nonzero"/></clipPath><clipPath id="a0f321130d"><path d="M 75 5.683594 L 81 5.683594 L 81 11 L 75 11 Z M 75 5.683594 " clip-rule="nonzero"/></clipPath><clipPath id="548dcd1077"><path d="M 63 5.683594 L 69 5.683594 L 69 11 L 63 11 Z M 63 5.683594 " clip-rule="nonzero"/></clipPath></defs><g clip-path="url(#3c3732652f)"><path fill="#21356a" d="M 37.707031 41.160156 L 52.429688 41.160156 C 52.429688 41.160156 55.027344 41.363281 55.027344 44.167969 C 55.027344 46.96875 52.429688 47.035156 52.429688 47.035156 L 34.503906 47.035156 C 34.503906 47.035156 31.4375 43.964844 30.507812 42.226562 C 29.574219 40.492188 27.644531 37.960938 27.644531 37.960938 C 27.644531 37.960938 21.777344 43.628906 20.582031 47.769531 C 19.382812 51.90625 19.582031 57.375 19.582031 57.375 L 34.976562 57.375 C 34.976562 57.375 36.539062 57.277344 37.304688 58.042969 C 38.074219 58.808594 38.707031 60.644531 38.707031 60.644531 L 38.707031 84.265625 C 38.707031 84.265625 37.90625 87.734375 34.171875 87.734375 C 30.4375 87.734375 29.640625 84.664062 29.640625 84.664062 L 29.640625 66.851562 C 29.640625 66.851562 13.78125 66.851562 13.78125 66.851562 C 13.78125 66.851562 12.515625 66.78125 11.382812 65.382812 C 10.25 63.984375 9.984375 62.113281 9.984375 59.511719 C 9.984375 56.910156 10.183594 46.765625 14.78125 39.027344 C 19.378906 31.289062 25.242188 26.351562 29.175781 26.351562 C 34.171875 26.351562 37.707031 41.164062 37.707031 41.164062 Z M 37.707031 41.160156 " fill-opacity="1" fill-rule="nonzero"/></g><path fill="#21356a" d="M 49.335938 23.011719 C 49.335938 23.496094 49.289062 23.976562 49.195312 24.453125 C 49.101562 24.925781 48.960938 25.386719 48.777344 25.835938 C 48.589844 26.28125 48.363281 26.707031 48.09375 27.109375 C 47.828125 27.511719 47.523438 27.886719 47.179688 28.226562 C 46.835938 28.570312 46.464844 28.875 46.0625 29.144531 C 45.660156 29.414062 45.238281 29.640625 44.789062 29.824219 C 44.34375 30.011719 43.882812 30.152344 43.410156 30.246094 C 42.933594 30.339844 42.457031 30.386719 41.972656 30.386719 C 41.488281 30.386719 41.011719 30.339844 40.535156 30.246094 C 40.0625 30.152344 39.601562 30.011719 39.152344 29.824219 C 38.707031 29.640625 38.28125 29.414062 37.882812 29.144531 C 37.480469 28.875 37.105469 28.570312 36.765625 28.226562 C 36.421875 27.886719 36.117188 27.511719 35.847656 27.109375 C 35.582031 26.707031 35.355469 26.28125 35.167969 25.835938 C 34.984375 25.386719 34.84375 24.925781 34.75 24.453125 C 34.65625 23.976562 34.609375 23.496094 34.609375 23.011719 C 34.609375 22.527344 34.65625 22.050781 34.75 21.574219 C 34.84375 21.101562 34.984375 20.636719 35.167969 20.191406 C 35.355469 19.742188 35.582031 19.320312 35.847656 18.917969 C 36.117188 18.515625 36.421875 18.140625 36.765625 17.800781 C 37.105469 17.457031 37.480469 17.152344 37.882812 16.882812 C 38.28125 16.613281 38.707031 16.386719 39.152344 16.199219 C 39.601562 16.015625 40.0625 15.875 40.535156 15.78125 C 41.011719 15.6875 41.488281 15.640625 41.972656 15.640625 C 42.457031 15.640625 42.933594 15.6875 43.410156 15.78125 C 43.882812 15.875 44.34375 16.015625 44.789062 16.199219 C 45.238281 16.386719 45.660156 16.613281 46.0625 16.882812 C 46.464844 17.152344 46.835938 17.457031 47.179688 17.800781 C 47.523438 18.140625 47.828125 18.515625 48.09375 18.917969 C 48.363281 19.320312 48.589844 19.742188 48.777344 20.191406 C 48.960938 20.636719 49.101562 21.101562 49.195312 21.574219 C 49.289062 22.050781 49.335938 22.527344 49.335938 23.011719 Z M 49.335938 23.011719 " fill-opacity="1" fill-rule="nonzero"/><path fill="#21356a" d="M 56.898438 50.835938 L 48.039062 50.835938 C 48.039062 50.835938 46.90625 51.4375 46.90625 52.101562 C 46.90625 52.769531 47.773438 53.167969 47.773438 53.167969 L 59.03125 53.167969 C 59.03125 53.167969 62.964844 42.894531 62.964844 42.894531 C 62.964844 42.894531 63.363281 41.628906 62.164062 41.027344 C 60.96875 40.425781 60.367188 41.691406 60.367188 41.691406 L 56.902344 50.835938 Z M 56.898438 50.835938 " fill-opacity="1" fill-rule="nonzero"/><g clip-path="url(#4b07b487f9)"><path fill="#21356a" d="M 112.433594 41.160156 L 97.707031 41.160156 C 97.707031 41.160156 95.109375 41.363281 95.109375 44.167969 C 95.109375 46.96875 97.707031 47.035156 97.707031 47.035156 L 115.636719 47.035156 C 115.636719 47.035156 118.699219 43.964844 119.632812 42.226562 C 120.566406 40.492188 122.496094 37.960938 122.496094 37.960938 C 122.496094 37.960938 128.359375 43.628906 129.558594 47.769531 C 130.757812 51.90625 130.558594 57.375 130.558594 57.375 L 115.164062 57.375 C 115.164062 57.375 113.601562 57.277344 112.832031 58.042969 C 112.066406 58.808594 111.433594 60.644531 111.433594 60.644531 L 111.433594 84.265625 C 111.433594 84.265625 112.234375 87.734375 115.96875 87.734375 C 119.699219 87.734375 120.5 84.664062 120.5 84.664062 L 120.5 66.851562 L 136.359375 66.851562 C 136.359375 66.851562 137.625 66.78125 138.757812 65.382812 C 139.890625 63.984375 140.15625 62.113281 140.15625 59.511719 C 140.15625 56.910156 139.957031 46.765625 135.359375 39.027344 C 130.761719 31.289062 124.898438 26.351562 120.964844 26.351562 C 115.96875 26.351562 112.433594 41.164062 112.433594 41.164062 Z M 112.433594 41.160156 " fill-opacity="1" fill-rule="nonzero"/></g><path fill="#21356a" d="M 115.535156 23.011719 C 115.535156 23.496094 115.488281 23.976562 115.394531 24.453125 C 115.300781 24.925781 115.160156 25.386719 114.972656 25.835938 C 114.789062 26.28125 114.5625 26.707031 114.292969 27.109375 C 114.023438 27.511719 113.71875 27.886719 113.378906 28.226562 C 113.035156 28.570312 112.664062 28.875 112.261719 29.144531 C 111.859375 29.414062 111.4375 29.640625 110.988281 29.824219 C 110.542969 30.011719 110.082031 30.152344 109.609375 30.246094 C 109.132812 30.339844 108.65625 30.386719 108.171875 30.386719 C 107.6875 30.386719 107.207031 30.339844 106.734375 30.246094 C 106.261719 30.152344 105.800781 30.011719 105.351562 29.824219 C 104.90625 29.640625 104.480469 29.414062 104.078125 29.144531 C 103.675781 28.875 103.304688 28.570312 102.964844 28.226562 C 102.621094 27.886719 102.316406 27.511719 102.046875 27.109375 C 101.777344 26.707031 101.550781 26.28125 101.367188 25.835938 C 101.183594 25.386719 101.042969 24.925781 100.949219 24.453125 C 100.855469 23.976562 100.804688 23.496094 100.804688 23.011719 C 100.804688 22.527344 100.855469 22.050781 100.949219 21.574219 C 101.042969 21.101562 101.183594 20.636719 101.367188 20.191406 C 101.550781 19.742188 101.777344 19.320312 102.046875 18.917969 C 102.316406 18.515625 102.621094 18.140625 102.964844 17.800781 C 103.304688 17.457031 103.675781 17.152344 104.078125 16.882812 C 104.480469 16.613281 104.90625 16.386719 105.351562 16.199219 C 105.800781 16.015625 106.261719 15.875 106.734375 15.78125 C 107.207031 15.6875 107.6875 15.640625 108.171875 15.640625 C 108.65625 15.640625 109.132812 15.6875 109.609375 15.78125 C 110.082031 15.875 110.542969 16.015625 110.988281 16.199219 C 111.4375 16.386719 111.859375 16.613281 112.261719 16.882812 C 112.664062 17.152344 113.035156 17.457031 113.378906 17.800781 C 113.71875 18.140625 114.023438 18.515625 114.292969 18.917969 C 114.5625 19.320312 114.789062 19.742188 114.972656 20.191406 C 115.160156 20.636719 115.300781 21.101562 115.394531 21.574219 C 115.488281 22.050781 115.535156 22.527344 115.535156 23.011719 Z M 115.535156 23.011719 " fill-opacity="1" fill-rule="nonzero"/><path fill="#21356a" d="M 93.242188 50.835938 L 102.105469 50.835938 C 102.105469 50.835938 103.238281 51.4375 103.238281 52.101562 C 103.238281 52.769531 102.371094 53.167969 102.371094 53.167969 L 91.109375 53.167969 L 87.179688 42.894531 C 87.179688 42.894531 86.78125 41.628906 87.976562 41.027344 C 89.175781 40.425781 89.777344 41.691406 89.777344 41.691406 Z M 93.242188 50.835938 " fill-opacity="1" fill-rule="nonzero"/><g clip-path="url(#b02caf8eef)"><path stroke-linecap="butt" transform="matrix(0.295872, 0, 0, 0.29626, 3.67768, 5.684839)" fill="none" stroke-linejoin="miter" d="M 214.058749 77.696254 C 201.965269 86.569903 194.096585 100.889043 194.096585 117.040929 C 194.096585 143.978318 215.933503 165.826215 242.892987 165.826215 C 269.839268 165.826215 291.676186 143.991503 291.676186 117.040929 C 291.676186 100.335264 283.292605 85.607382 270.48619 76.812845 " stroke="#3a87c4" stroke-width="24" stroke-opacity="1" stroke-miterlimit="10"/></g><path fill="#3a87c4" d="M 73.324219 37.578125 L 77.863281 37.578125 L 77.863281 42.121094 L 73.324219 42.121094 Z M 73.324219 37.578125 " fill-opacity="1" fill-rule="nonzero"/><path fill="#3a87c4" d="M 75.945312 31.3125 L 80.484375 31.3125 L 80.484375 35.859375 L 75.945312 35.859375 Z M 75.945312 31.3125 " fill-opacity="1" fill-rule="nonzero"/><path fill="#3a87c4" d="M 70.199219 31.3125 L 74.738281 31.3125 L 74.738281 35.859375 L 70.199219 35.859375 Z M 70.199219 31.3125 " fill-opacity="1" fill-rule="nonzero"/><path fill="#3a87c4" d="M 78.210938 25.046875 L 82.75 25.046875 L 82.75 29.59375 L 78.210938 29.59375 Z M 78.210938 25.046875 " fill-opacity="1" fill-rule="nonzero"/><path fill="#3a87c4" d="M 67.929688 25.046875 L 72.46875 25.046875 L 72.46875 29.59375 L 67.929688 29.59375 Z M 67.929688 25.046875 " fill-opacity="1" fill-rule="nonzero"/><path fill="#3a87c4" d="M 81.394531 18.691406 L 85.933594 18.691406 L 85.933594 23.234375 L 81.394531 23.234375 Z M 81.394531 18.691406 " fill-opacity="1" fill-rule="nonzero"/><path fill="#3a87c4" d="M 71.058594 18.691406 L 75.597656 18.691406 L 75.597656 23.234375 L 71.058594 23.234375 Z M 71.058594 18.691406 " fill-opacity="1" fill-rule="nonzero"/><path fill="#3a87c4" d="M 64.542969 18.691406 L 69.082031 18.691406 L 69.082031 23.234375 L 64.542969 23.234375 Z M 64.542969 18.691406 " fill-opacity="1" fill-rule="nonzero"/><path fill="#3a87c4" d="M 85.566406 12.058594 L 90.105469 12.058594 L 90.105469 16.605469 L 85.566406 16.605469 Z M 85.566406 12.058594 " fill-opacity="1" fill-rule="nonzero"/><path fill="#3a87c4" d="M 79.640625 12.058594 L 84.179688 12.058594 L 84.179688 16.605469 L 79.640625 16.605469 Z M 79.640625 12.058594 " fill-opacity="1" fill-rule="nonzero"/><path fill="#3a87c4" d="M 73.324219 12.058594 L 77.863281 12.058594 L 77.863281 16.605469 L 73.324219 16.605469 Z M 73.324219 12.058594 " fill-opacity="1" fill-rule="nonzero"/><path fill="#3a87c4" d="M 60.757812 12.058594 L 65.296875 12.058594 L 65.296875 16.605469 L 60.757812 16.605469 Z M 60.757812 12.058594 " fill-opacity="1" fill-rule="nonzero"/><g clip-path="url(#1e38ddf45b)"><path fill="#3a87c4" d="M 89.023438 5.683594 L 93.5625 5.683594 L 93.5625 10.230469 L 89.023438 10.230469 Z M 89.023438 5.683594 " fill-opacity="1" fill-rule="nonzero"/></g><g clip-path="url(#a0f321130d)"><path fill="#3a87c4" d="M 75.945312 5.683594 L 80.484375 5.683594 L 80.484375 10.230469 L 75.945312 10.230469 Z M 75.945312 5.683594 " fill-opacity="1" fill-rule="nonzero"/></g><g clip-path="url(#548dcd1077)"><path fill="#3a87c4" d="M 63.941406 5.683594 L 68.480469 5.683594 L 68.480469 10.230469 L 63.941406 10.230469 Z M 63.941406 5.683594 " fill-opacity="1" fill-rule="nonzero"/></g></svg>