<svg xmlns="http://www.w3.org/2000/svg" xmlns:xlink="http://www.w3.org/1999/xlink" width="200" zoomAndPan="magnify" viewBox="0 0 150 93.749996" height="125" preserveAspectRatio="xMidYMid meet" version="1.0"><defs><clipPath id="5eaffba16e"><path d="M 0.199219 0 L 149.800781 0 L 149.800781 93.5 L 0.199219 93.5 Z M 0.199219 0 " clip-rule="nonzero"/></clipPath><clipPath id="c595d60a0f"><path d="M 6 25 L 55 25 L 55 89.726562 L 6 89.726562 Z M 6 25 " clip-rule="nonzero"/></clipPath><clipPath id="03bb376d1f"><path d="M 95 25 L 144 25 L 144 89.726562 L 95 89.726562 Z M 95 25 " clip-rule="nonzero"/></clipPath><clipPath id="a2761a9b71"><path d="M 0.199219 3.707031 L 149.800781 3.707031 L 149.800781 89.726562 L 0.199219 89.726562 Z M 0.199219 3.707031 " clip-rule="nonzero"/></clipPath><clipPath id="7fae552209"><path d="M 89 3.707031 L 95 3.707031 L 95 9 L 89 9 Z M 89 3.707031 " clip-rule="nonzero"/></clipPath><clipPath id="5f1c068e5b"><path d="M 75 3.707031 L 81 3.707031 L 81 9 L 75 9 Z M 75 3.707031 " clip-rule="nonzero"/></clipPath><clipPath id="f3532bb464"><path d="M 63 3.707031 L 69 3.707031 L 69 9 L 63 9 Z M 63 3.707031 " clip-rule="nonzero"/></clipPath></defs><g clip-path="url(#5eaffba16e)"><path fill="#ffffff" d="M 0.199219 0 L 149.800781 0 L 149.800781 93.5 L 0.199219 93.5 Z M 0.199219 0 " fill-opacity="1" fill-rule="nonzero"/><path fill="#ffffff" d="M 0.199219 0 L 149.800781 0 L 149.800781 93.5 L 0.199219 93.5 Z M 0.199219 0 " fill-opacity="1" fill-rule="nonzero"/></g><g clip-path="url(#c595d60a0f)"><path fill="#21356a" d="M 35.875 40.804688 L 51.292969 40.804688 C 51.292969 40.804688 54.015625 41.015625 54.015625 43.945312 C 54.015625 46.875 51.292969 46.945312 51.292969 46.945312 L 32.523438 46.945312 C 32.523438 46.945312 29.3125 43.734375 28.339844 41.921875 C 27.363281 40.105469 25.339844 37.457031 25.339844 37.457031 C 25.339844 37.457031 19.199219 43.386719 17.945312 47.714844 C 16.691406 52.039062 16.898438 57.761719 16.898438 57.761719 L 33.015625 57.761719 C 33.015625 57.761719 34.65625 57.65625 35.457031 58.457031 C 36.261719 59.257812 36.921875 61.175781 36.921875 61.175781 L 36.921875 85.875 C 36.921875 85.875 36.085938 89.503906 32.175781 89.503906 C 28.265625 89.503906 27.429688 86.296875 27.429688 86.296875 L 27.429688 67.667969 C 27.429688 67.667969 10.824219 67.667969 10.824219 67.667969 C 10.824219 67.667969 9.5 67.597656 8.3125 66.132812 C 7.125 64.667969 6.847656 62.714844 6.847656 59.992188 C 6.847656 57.273438 7.058594 46.667969 11.871094 38.574219 C 16.6875 30.480469 22.824219 25.316406 26.945312 25.316406 C 32.175781 25.316406 35.875 40.808594 35.875 40.808594 Z M 35.875 40.804688 " fill-opacity="1" fill-rule="nonzero"/></g><path fill="#21356a" d="M 48.054688 21.828125 C 48.054688 22.332031 48.003906 22.835938 47.90625 23.332031 C 47.808594 23.828125 47.660156 24.308594 47.46875 24.777344 C 47.273438 25.246094 47.035156 25.691406 46.753906 26.109375 C 46.472656 26.53125 46.152344 26.921875 45.796875 27.277344 C 45.4375 27.636719 45.046875 27.957031 44.628906 28.238281 C 44.207031 28.519531 43.761719 28.757812 43.292969 28.949219 C 42.824219 29.144531 42.34375 29.289062 41.847656 29.390625 C 41.351562 29.488281 40.847656 29.539062 40.34375 29.539062 C 39.835938 29.539062 39.335938 29.488281 38.839844 29.390625 C 38.34375 29.289062 37.859375 29.144531 37.390625 28.949219 C 36.925781 28.757812 36.480469 28.519531 36.058594 28.238281 C 35.636719 27.957031 35.25 27.636719 34.890625 27.277344 C 34.53125 26.921875 34.214844 26.53125 33.933594 26.109375 C 33.652344 25.691406 33.414062 25.246094 33.21875 24.777344 C 33.027344 24.308594 32.878906 23.828125 32.78125 23.332031 C 32.683594 22.835938 32.632812 22.332031 32.632812 21.828125 C 32.632812 21.320312 32.683594 20.820312 32.78125 20.324219 C 32.878906 19.824219 33.027344 19.34375 33.21875 18.875 C 33.414062 18.40625 33.652344 17.964844 33.933594 17.542969 C 34.214844 17.121094 34.53125 16.730469 34.890625 16.375 C 35.25 16.015625 35.636719 15.695312 36.058594 15.414062 C 36.480469 15.132812 36.925781 14.898438 37.390625 14.703125 C 37.859375 14.507812 38.34375 14.363281 38.839844 14.265625 C 39.335938 14.164062 39.835938 14.117188 40.34375 14.117188 C 40.847656 14.117188 41.351562 14.164062 41.847656 14.265625 C 42.34375 14.363281 42.824219 14.507812 43.292969 14.703125 C 43.761719 14.898438 44.207031 15.132812 44.628906 15.414062 C 45.046875 15.695312 45.4375 16.015625 45.796875 16.375 C 46.152344 16.730469 46.472656 17.121094 46.753906 17.542969 C 47.035156 17.964844 47.273438 18.40625 47.46875 18.875 C 47.660156 19.34375 47.808594 19.824219 47.90625 20.324219 C 48.003906 20.820312 48.054688 21.320312 48.054688 21.828125 Z M 48.054688 21.828125 " fill-opacity="1" fill-rule="nonzero"/><path fill="#21356a" d="M 55.972656 50.917969 L 46.695312 50.917969 C 46.695312 50.917969 45.507812 51.546875 45.507812 52.246094 C 45.507812 52.941406 46.414062 53.359375 46.414062 53.359375 L 58.207031 53.359375 C 58.207031 53.359375 62.324219 42.617188 62.324219 42.617188 C 62.324219 42.617188 62.742188 41.292969 61.488281 40.664062 C 60.230469 40.035156 59.601562 41.359375 59.601562 41.359375 L 55.976562 50.917969 Z M 55.972656 50.917969 " fill-opacity="1" fill-rule="nonzero"/><g clip-path="url(#03bb376d1f)"><path fill="#21356a" d="M 114.121094 40.804688 L 98.703125 40.804688 C 98.703125 40.804688 95.984375 41.015625 95.984375 43.945312 C 95.984375 46.875 98.703125 46.945312 98.703125 46.945312 L 117.472656 46.945312 C 117.472656 46.945312 120.683594 43.734375 121.660156 41.921875 C 122.632812 40.105469 124.65625 37.457031 124.65625 37.457031 C 124.65625 37.457031 130.796875 43.386719 132.050781 47.714844 C 133.308594 52.039062 133.097656 57.761719 133.097656 57.761719 L 116.980469 57.761719 C 116.980469 57.761719 115.339844 57.65625 114.539062 58.457031 C 113.738281 59.257812 113.074219 61.175781 113.074219 61.175781 L 113.074219 85.875 C 113.074219 85.875 113.910156 89.503906 117.820312 89.503906 C 121.726562 89.503906 122.566406 86.296875 122.566406 86.296875 L 122.566406 67.667969 L 139.171875 67.667969 C 139.171875 67.667969 140.496094 67.597656 141.683594 66.132812 C 142.871094 64.667969 143.148438 62.714844 143.148438 59.992188 C 143.148438 57.273438 142.9375 46.667969 138.125 38.574219 C 133.308594 30.480469 127.171875 25.316406 123.050781 25.316406 C 117.820312 25.316406 114.121094 40.808594 114.121094 40.808594 Z M 114.121094 40.804688 " fill-opacity="1" fill-rule="nonzero"/></g><path fill="#21356a" d="M 117.367188 21.828125 C 117.367188 22.332031 117.316406 22.835938 117.21875 23.332031 C 117.121094 23.828125 116.972656 24.308594 116.78125 24.777344 C 116.585938 25.246094 116.347656 25.691406 116.066406 26.109375 C 115.785156 26.53125 115.46875 26.921875 115.109375 27.277344 C 114.75 27.636719 114.363281 27.957031 113.941406 28.238281 C 113.519531 28.519531 113.074219 28.757812 112.609375 28.949219 C 112.140625 29.144531 111.65625 29.289062 111.160156 29.390625 C 110.664062 29.488281 110.164062 29.539062 109.65625 29.539062 C 109.152344 29.539062 108.648438 29.488281 108.152344 29.390625 C 107.65625 29.289062 107.175781 29.144531 106.707031 28.949219 C 106.238281 28.757812 105.792969 28.519531 105.371094 28.238281 C 104.953125 27.957031 104.5625 27.636719 104.203125 27.277344 C 103.847656 26.921875 103.527344 26.53125 103.246094 26.109375 C 102.964844 25.691406 102.726562 25.246094 102.53125 24.777344 C 102.339844 24.308594 102.191406 23.828125 102.09375 23.332031 C 101.996094 22.835938 101.945312 22.332031 101.945312 21.828125 C 101.945312 21.320312 101.996094 20.820312 102.09375 20.324219 C 102.191406 19.824219 102.339844 19.34375 102.53125 18.875 C 102.726562 18.40625 102.964844 17.964844 103.246094 17.542969 C 103.527344 17.121094 103.847656 16.730469 104.203125 16.375 C 104.5625 16.015625 104.953125 15.695312 105.371094 15.414062 C 105.792969 15.132812 106.238281 14.898438 106.707031 14.703125 C 107.175781 14.507812 107.65625 14.363281 108.152344 14.265625 C 108.648438 14.164062 109.152344 14.117188 109.65625 14.117188 C 110.164062 14.117188 110.664062 14.164062 111.160156 14.265625 C 111.65625 14.363281 112.140625 14.507812 112.609375 14.703125 C 113.074219 14.898438 113.519531 15.132812 113.941406 15.414062 C 114.363281 15.695312 114.75 16.015625 115.109375 16.375 C 115.46875 16.730469 115.785156 17.121094 116.066406 17.542969 C 116.347656 17.964844 116.585938 18.40625 116.78125 18.875 C 116.972656 19.34375 117.121094 19.824219 117.21875 20.324219 C 117.316406 20.820312 117.367188 21.320312 117.367188 21.828125 Z M 117.367188 21.828125 " fill-opacity="1" fill-rule="nonzero"/><path fill="#21356a" d="M 94.027344 50.917969 L 103.304688 50.917969 C 103.304688 50.917969 104.492188 51.546875 104.492188 52.246094 C 104.492188 52.941406 103.585938 53.359375 103.585938 53.359375 L 91.792969 53.359375 L 87.675781 42.617188 C 87.675781 42.617188 87.257812 41.292969 88.511719 40.664062 C 89.769531 40.035156 90.398438 41.359375 90.398438 41.359375 L 94.023438 50.917969 Z M 94.027344 50.917969 " fill-opacity="1" fill-rule="nonzero"/><g clip-path="url(#a2761a9b71)"><path stroke-linecap="butt" transform="matrix(0.309796, 0, 0, 0.309796, 0.246235, 3.706638)" fill="none" stroke-linejoin="miter" d="M 214.064345 77.685973 C 201.959603 86.575393 194.104129 100.886729 194.104129 117.038994 C 194.104129 143.984655 215.943102 165.836236 242.888762 165.836236 C 269.834423 165.836236 291.686004 143.984655 291.686004 117.038994 C 291.686004 100.344537 283.288339 85.604492 270.490096 76.815945 " stroke="#3a87c4" stroke-width="24" stroke-opacity="1" stroke-miterlimit="10"/></g><path fill="#ff914d" d="M 73.171875 37.054688 L 77.925781 37.054688 L 77.925781 41.808594 L 73.171875 41.808594 Z M 73.171875 37.054688 " fill-opacity="1" fill-rule="nonzero"/><path fill="#ff914d" d="M 75.914062 30.507812 L 80.667969 30.507812 L 80.667969 35.257812 L 75.914062 35.257812 Z M 75.914062 30.507812 " fill-opacity="1" fill-rule="nonzero"/><path fill="#ff914d" d="M 69.898438 30.507812 L 74.648438 30.507812 L 74.648438 35.257812 L 69.898438 35.257812 Z M 69.898438 30.507812 " fill-opacity="1" fill-rule="nonzero"/><path fill="#ff914d" d="M 78.285156 23.953125 L 83.039062 23.953125 L 83.039062 28.707031 L 78.285156 28.707031 Z M 78.285156 23.953125 " fill-opacity="1" fill-rule="nonzero"/><path fill="#ff914d" d="M 67.523438 23.953125 L 72.273438 23.953125 L 72.273438 28.707031 L 67.523438 28.707031 Z M 67.523438 23.953125 " fill-opacity="1" fill-rule="nonzero"/><path fill="#ff914d" d="M 81.621094 17.308594 L 86.371094 17.308594 L 86.371094 22.058594 L 81.621094 22.058594 Z M 81.621094 17.308594 " fill-opacity="1" fill-rule="nonzero"/><path fill="#ff914d" d="M 70.800781 17.308594 L 75.550781 17.308594 L 75.550781 22.058594 L 70.800781 22.058594 Z M 70.800781 17.308594 " fill-opacity="1" fill-rule="nonzero"/><path fill="#ff914d" d="M 63.976562 17.308594 L 68.730469 17.308594 L 68.730469 22.058594 L 63.976562 22.058594 Z M 63.976562 17.308594 " fill-opacity="1" fill-rule="nonzero"/><path fill="#ff914d" d="M 85.988281 10.375 L 90.742188 10.375 L 90.742188 15.125 L 85.988281 15.125 Z M 85.988281 10.375 " fill-opacity="1" fill-rule="nonzero"/><path fill="#ff914d" d="M 79.785156 10.375 L 84.535156 10.375 L 84.535156 15.125 L 79.785156 15.125 Z M 79.785156 10.375 " fill-opacity="1" fill-rule="nonzero"/><path fill="#ff914d" d="M 73.171875 10.375 L 77.925781 10.375 L 77.925781 15.125 L 73.171875 15.125 Z M 73.171875 10.375 " fill-opacity="1" fill-rule="nonzero"/><path fill="#ff914d" d="M 60.011719 10.375 L 64.765625 10.375 L 64.765625 15.125 L 60.011719 15.125 Z M 60.011719 10.375 " fill-opacity="1" fill-rule="nonzero"/><g clip-path="url(#7fae552209)"><path fill="#ff914d" d="M 89.609375 3.707031 L 94.363281 3.707031 L 94.363281 8.457031 L 89.609375 8.457031 Z M 89.609375 3.707031 " fill-opacity="1" fill-rule="nonzero"/></g><g clip-path="url(#5f1c068e5b)"><path fill="#ff914d" d="M 75.914062 3.707031 L 80.667969 3.707031 L 80.667969 8.457031 L 75.914062 8.457031 Z M 75.914062 3.707031 " fill-opacity="1" fill-rule="nonzero"/></g><g clip-path="url(#f3532bb464)"><path fill="#ff914d" d="M 63.34375 3.707031 L 68.097656 3.707031 L 68.097656 8.457031 L 63.34375 8.457031 Z M 63.34375 3.707031 " fill-opacity="1" fill-rule="nonzero"/></g></svg>