<svg xmlns="http://www.w3.org/2000/svg" xmlns:xlink="http://www.w3.org/1999/xlink" width="98" zoomAndPan="magnify" viewBox="0 0 73.5 73.499996" height="98" preserveAspectRatio="xMidYMid meet" version="1.0"><defs><clipPath id="3eccceb725"><path d="M 0 0 L 73.003906 0 L 73.003906 73.003906 L 0 73.003906 Z M 0 0 " clip-rule="nonzero"/></clipPath><clipPath id="5382a32007"><path d="M 6 27 L 28 27 L 28 55.039062 L 6 55.039062 Z M 6 27 " clip-rule="nonzero"/></clipPath><clipPath id="7a758d5764"><path d="M 45 27 L 67 27 L 67 55.039062 L 45 55.039062 Z M 45 27 " clip-rule="nonzero"/></clipPath><clipPath id="de62cae339"><path d="M 3.988281 17.789062 L 68.796875 17.789062 L 68.796875 55.039062 L 3.988281 55.039062 Z M 3.988281 17.789062 " clip-rule="nonzero"/></clipPath><clipPath id="04b21e6e67"><path d="M 42 17.789062 L 45 17.789062 L 45 20 L 42 20 Z M 42 17.789062 " clip-rule="nonzero"/></clipPath><clipPath id="a705ed8f13"><path d="M 36 17.789062 L 39 17.789062 L 39 20 L 36 20 Z M 36 17.789062 " clip-rule="nonzero"/></clipPath><clipPath id="a0e3aabe58"><path d="M 31 17.789062 L 34 17.789062 L 34 20 L 31 20 Z M 31 17.789062 " clip-rule="nonzero"/></clipPath></defs><g clip-path="url(#3eccceb725)"><path fill="#ffffff" d="M 0 0 L 73.003906 0 L 73.003906 73.003906 L 0 73.003906 Z M 0 0 " fill-opacity="1" fill-rule="nonzero"/><path fill="#ffffff" d="M 0 0 L 73.003906 0 L 73.003906 73.003906 L 0 73.003906 Z M 0 0 " fill-opacity="1" fill-rule="nonzero"/></g><g clip-path="url(#5382a32007)"><path fill="#21356a" d="M 19.496094 33.914062 L 26.199219 33.914062 C 26.199219 33.914062 27.378906 34.007812 27.378906 35.28125 C 27.378906 36.554688 26.199219 36.582031 26.199219 36.582031 L 18.039062 36.582031 C 18.039062 36.582031 16.644531 35.1875 16.222656 34.398438 C 15.796875 33.609375 14.917969 32.460938 14.917969 32.460938 C 14.917969 32.460938 12.25 35.035156 11.703125 36.917969 C 11.160156 38.796875 11.25 41.285156 11.25 41.285156 L 18.253906 41.285156 C 18.253906 41.285156 18.964844 41.238281 19.316406 41.585938 C 19.664062 41.933594 19.953125 42.769531 19.953125 42.769531 L 19.953125 53.503906 C 19.953125 53.503906 19.589844 55.082031 17.890625 55.082031 C 16.191406 55.082031 15.828125 53.6875 15.828125 53.6875 L 15.828125 45.589844 C 15.828125 45.589844 8.609375 45.589844 8.609375 45.589844 C 8.609375 45.589844 8.035156 45.558594 7.519531 44.921875 C 7.003906 44.285156 6.882812 43.4375 6.882812 42.253906 C 6.882812 41.074219 6.972656 36.460938 9.066406 32.945312 C 11.15625 29.425781 13.824219 27.183594 15.617188 27.183594 C 17.890625 27.183594 19.496094 33.917969 19.496094 33.917969 Z M 19.496094 33.914062 " fill-opacity="1" fill-rule="nonzero"/></g><path fill="#21356a" d="M 24.789062 25.667969 C 24.789062 26.109375 24.707031 26.539062 24.535156 26.949219 C 24.363281 27.359375 24.121094 27.722656 23.808594 28.035156 C 23.496094 28.351562 23.132812 28.59375 22.722656 28.761719 C 22.3125 28.933594 21.882812 29.019531 21.4375 29.019531 C 20.996094 29.019531 20.566406 28.933594 20.15625 28.761719 C 19.746094 28.59375 19.382812 28.351562 19.070312 28.035156 C 18.753906 27.722656 18.511719 27.359375 18.34375 26.949219 C 18.171875 26.539062 18.085938 26.109375 18.085938 25.667969 C 18.085938 25.222656 18.171875 24.792969 18.34375 24.382812 C 18.511719 23.972656 18.753906 23.609375 19.070312 23.296875 C 19.382812 22.980469 19.746094 22.738281 20.15625 22.570312 C 20.566406 22.398438 20.996094 22.316406 21.4375 22.316406 C 21.882812 22.316406 22.3125 22.398438 22.722656 22.570312 C 23.132812 22.738281 23.496094 22.980469 23.808594 23.296875 C 24.121094 23.609375 24.363281 23.972656 24.535156 24.382812 C 24.707031 24.792969 24.789062 25.222656 24.789062 25.667969 Z M 24.789062 25.667969 " fill-opacity="1" fill-rule="nonzero"/><path fill="#21356a" d="M 28.230469 38.3125 L 24.199219 38.3125 C 24.199219 38.3125 23.683594 38.585938 23.683594 38.886719 C 23.683594 39.191406 24.078125 39.371094 24.078125 39.371094 L 29.203125 39.371094 C 29.203125 39.371094 30.992188 34.703125 30.992188 34.703125 C 30.992188 34.703125 31.171875 34.125 30.628906 33.851562 C 30.082031 33.578125 29.808594 34.15625 29.808594 34.15625 L 28.234375 38.3125 Z M 28.230469 38.3125 " fill-opacity="1" fill-rule="nonzero"/><g clip-path="url(#7a758d5764)"><path fill="#21356a" d="M 53.503906 33.914062 L 46.804688 33.914062 C 46.804688 33.914062 45.621094 34.007812 45.621094 35.28125 C 45.621094 36.554688 46.804688 36.582031 46.804688 36.582031 L 54.960938 36.582031 C 54.960938 36.582031 56.355469 35.1875 56.78125 34.398438 C 57.203125 33.609375 58.082031 32.460938 58.082031 32.460938 C 58.082031 32.460938 60.753906 35.035156 61.296875 36.917969 C 61.84375 38.796875 61.753906 41.285156 61.753906 41.285156 L 54.746094 41.285156 C 54.746094 41.285156 54.035156 41.238281 53.6875 41.585938 C 53.335938 41.933594 53.050781 42.769531 53.050781 42.769531 L 53.050781 53.503906 C 53.050781 53.503906 53.414062 55.082031 55.113281 55.082031 C 56.808594 55.082031 57.175781 53.6875 57.175781 53.6875 L 57.175781 45.589844 L 64.390625 45.589844 C 64.390625 45.589844 64.96875 45.558594 65.484375 44.921875 C 66 44.285156 66.121094 43.4375 66.121094 42.253906 C 66.121094 41.074219 66.027344 36.460938 63.9375 32.945312 C 61.84375 29.425781 59.175781 27.183594 57.386719 27.183594 C 55.113281 27.183594 53.503906 33.917969 53.503906 33.917969 Z M 53.503906 33.914062 " fill-opacity="1" fill-rule="nonzero"/></g><path fill="#21356a" d="M 54.914062 25.667969 C 54.914062 26.109375 54.832031 26.539062 54.660156 26.949219 C 54.492188 27.359375 54.25 27.722656 53.933594 28.035156 C 53.621094 28.351562 53.257812 28.59375 52.847656 28.761719 C 52.4375 28.933594 52.007812 29.019531 51.5625 29.019531 C 51.121094 29.019531 50.691406 28.933594 50.28125 28.761719 C 49.871094 28.59375 49.507812 28.351562 49.195312 28.035156 C 48.878906 27.722656 48.636719 27.359375 48.46875 26.949219 C 48.296875 26.539062 48.214844 26.109375 48.214844 25.667969 C 48.214844 25.222656 48.296875 24.792969 48.46875 24.382812 C 48.636719 23.972656 48.878906 23.609375 49.195312 23.296875 C 49.507812 22.980469 49.871094 22.738281 50.28125 22.570312 C 50.691406 22.398438 51.121094 22.316406 51.5625 22.316406 C 52.007812 22.316406 52.4375 22.398438 52.847656 22.570312 C 53.257812 22.738281 53.621094 22.980469 53.933594 23.296875 C 54.25 23.609375 54.492188 23.972656 54.660156 24.382812 C 54.832031 24.792969 54.914062 25.222656 54.914062 25.667969 Z M 54.914062 25.667969 " fill-opacity="1" fill-rule="nonzero"/><path fill="#21356a" d="M 44.773438 38.3125 L 48.804688 38.3125 C 48.804688 38.3125 49.320312 38.585938 49.320312 38.886719 C 49.320312 39.191406 48.925781 39.371094 48.925781 39.371094 L 43.800781 39.371094 L 42.011719 34.703125 C 42.011719 34.703125 41.828125 34.125 42.375 33.851562 C 42.921875 33.578125 43.195312 34.15625 43.195312 34.15625 L 44.769531 38.3125 Z M 44.773438 38.3125 " fill-opacity="1" fill-rule="nonzero"/><g clip-path="url(#de62cae339)"><path stroke-linecap="butt" transform="matrix(0.134645, 0, 0, 0.134645, 4.011745, 17.790918)" fill="none" stroke-linejoin="miter" d="M 214.046317 77.678895 C 201.948541 86.5564 194.086437 100.888058 194.086437 117.047438 C 194.086437 143.970068 215.932062 165.815693 242.883703 165.815693 C 269.835344 165.815693 291.680969 143.999079 291.680969 117.047438 C 291.680969 100.33684 283.296659 85.599022 270.502607 76.808551 " stroke="#3a87c4" stroke-width="24" stroke-opacity="1" stroke-miterlimit="10"/></g><path fill="#ff914d" d="M 35.707031 32.285156 L 37.773438 32.285156 L 37.773438 34.351562 L 35.707031 34.351562 Z M 35.707031 32.285156 " fill-opacity="1" fill-rule="nonzero"/><path fill="#ff914d" d="M 36.898438 29.4375 L 38.964844 29.4375 L 38.964844 31.503906 L 36.898438 31.503906 Z M 36.898438 29.4375 " fill-opacity="1" fill-rule="nonzero"/><path fill="#ff914d" d="M 34.285156 29.4375 L 36.347656 29.4375 L 36.347656 31.503906 L 34.285156 31.503906 Z M 34.285156 29.4375 " fill-opacity="1" fill-rule="nonzero"/><path fill="#ff914d" d="M 37.929688 26.589844 L 39.996094 26.589844 L 39.996094 28.65625 L 37.929688 28.65625 Z M 37.929688 26.589844 " fill-opacity="1" fill-rule="nonzero"/><path fill="#ff914d" d="M 33.25 26.589844 L 35.316406 26.589844 L 35.316406 28.65625 L 33.25 28.65625 Z M 33.25 26.589844 " fill-opacity="1" fill-rule="nonzero"/><path fill="#ff914d" d="M 39.378906 23.703125 L 41.445312 23.703125 L 41.445312 25.765625 L 39.378906 25.765625 Z M 39.378906 23.703125 " fill-opacity="1" fill-rule="nonzero"/><path fill="#ff914d" d="M 34.675781 23.703125 L 36.742188 23.703125 L 36.742188 25.765625 L 34.675781 25.765625 Z M 34.675781 23.703125 " fill-opacity="1" fill-rule="nonzero"/><path fill="#ff914d" d="M 31.710938 23.703125 L 33.777344 23.703125 L 33.777344 25.765625 L 31.710938 25.765625 Z M 31.710938 23.703125 " fill-opacity="1" fill-rule="nonzero"/><path fill="#ff914d" d="M 41.277344 20.6875 L 43.34375 20.6875 L 43.34375 22.753906 L 41.277344 22.753906 Z M 41.277344 20.6875 " fill-opacity="1" fill-rule="nonzero"/><path fill="#ff914d" d="M 38.582031 20.6875 L 40.644531 20.6875 L 40.644531 22.753906 L 38.582031 22.753906 Z M 38.582031 20.6875 " fill-opacity="1" fill-rule="nonzero"/><path fill="#ff914d" d="M 35.707031 20.6875 L 37.773438 20.6875 L 37.773438 22.753906 L 35.707031 22.753906 Z M 35.707031 20.6875 " fill-opacity="1" fill-rule="nonzero"/><path fill="#ff914d" d="M 29.988281 20.6875 L 32.054688 20.6875 L 32.054688 22.753906 L 29.988281 22.753906 Z M 29.988281 20.6875 " fill-opacity="1" fill-rule="nonzero"/><g clip-path="url(#04b21e6e67)"><path fill="#ff914d" d="M 42.851562 17.789062 L 44.917969 17.789062 L 44.917969 19.855469 L 42.851562 19.855469 Z M 42.851562 17.789062 " fill-opacity="1" fill-rule="nonzero"/></g><g clip-path="url(#a705ed8f13)"><path fill="#ff914d" d="M 36.898438 17.789062 L 38.964844 17.789062 L 38.964844 19.855469 L 36.898438 19.855469 Z M 36.898438 17.789062 " fill-opacity="1" fill-rule="nonzero"/></g><g clip-path="url(#a0e3aabe58)"><path fill="#ff914d" d="M 31.4375 17.789062 L 33.5 17.789062 L 33.5 19.855469 L 31.4375 19.855469 Z M 31.4375 17.789062 " fill-opacity="1" fill-rule="nonzero"/></g></svg>