<svg xmlns="http://www.w3.org/2000/svg" xmlns:xlink="http://www.w3.org/1999/xlink" width="98" zoomAndPan="magnify" viewBox="0 0 73.5 73.499996" height="98" preserveAspectRatio="xMidYMid meet" version="1.0"><defs><clipPath id="6aa1514950"><path d="M 0 0 L 73.003906 0 L 73.003906 73.003906 L 0 73.003906 Z M 0 0 " clip-rule="nonzero"/></clipPath><clipPath id="9b7466124b"><path d="M 0 57 L 73 57 L 73 57.214844 L 0 57.214844 Z M 0 57 " clip-rule="nonzero"/></clipPath><clipPath id="c4ba83243d"><path d="M 64 57 L 73 57 L 73 57.214844 L 64 57.214844 Z M 64 57 " clip-rule="nonzero"/></clipPath><clipPath id="b3260fb423"><path d="M 0 57 L 9 57 L 9 57.214844 L 0 57.214844 Z M 0 57 " clip-rule="nonzero"/></clipPath><clipPath id="754deba975"><path d="M 3 26 L 27 26 L 27 57.214844 L 3 57.214844 Z M 3 26 " clip-rule="nonzero"/></clipPath><clipPath id="b02602bf5a"><path d="M 46 26 L 70 26 L 70 57.214844 L 46 57.214844 Z M 46 26 " clip-rule="nonzero"/></clipPath><clipPath id="7f18a31516"><path d="M 0 15.496094 L 73.003906 15.496094 L 73.003906 57.214844 L 0 57.214844 Z M 0 15.496094 " clip-rule="nonzero"/></clipPath><clipPath id="96cc383cf8"><path d="M 43 15.496094 L 46 15.496094 L 46 18 L 43 18 Z M 43 15.496094 " clip-rule="nonzero"/></clipPath><clipPath id="aa87c713dd"><path d="M 36 15.496094 L 40 15.496094 L 40 18 L 36 18 Z M 36 15.496094 " clip-rule="nonzero"/></clipPath><clipPath id="a5b9a7cf74"><path d="M 30 15.496094 L 34 15.496094 L 34 18 L 30 18 Z M 30 15.496094 " clip-rule="nonzero"/></clipPath></defs><g clip-path="url(#6aa1514950)"><path fill="#ffffff" d="M 0 0 L 73.003906 0 L 73.003906 73.003906 L 0 73.003906 Z M 0 0 " fill-opacity="1" fill-rule="nonzero"/><path fill="#ffffff" d="M 0 0 L 73.003906 0 L 73.003906 73.003906 L 0 73.003906 Z M 0 0 " fill-opacity="1" fill-rule="nonzero"/></g><g clip-path="url(#9b7466124b)"><path fill="#000080" d="M 71.003906 58.570312 L 64.929688 69.71875 L 7.621094 69.71875 L 1.546875 58.570312 L 71.003906 58.570312 M 72.527344 57.667969 L 0.0234375 57.667969 L 7.078125 70.621094 L 65.46875 70.621094 Z M 72.527344 57.667969 " fill-opacity="1" fill-rule="nonzero"/></g><g clip-path="url(#c4ba83243d)"><path fill="#21356a" d="M 65.925781 70.621094 L 64.515625 70.621094 L 71.464844 57.667969 L 72.980469 57.667969 Z M 65.925781 70.621094 " fill-opacity="1" fill-rule="nonzero"/></g><g clip-path="url(#b3260fb423)"><path fill="#21356a" d="M 7.078125 70.621094 L 8.484375 70.621094 L 1.539062 57.667969 L 0.0234375 57.667969 Z M 7.078125 70.621094 " fill-opacity="1" fill-rule="nonzero"/></g><g clip-path="url(#754deba975)"><path fill="#21356a" d="M 17.410156 33.527344 L 24.933594 33.527344 C 24.933594 33.527344 26.261719 33.628906 26.261719 35.054688 C 26.261719 36.480469 24.933594 36.511719 24.933594 36.511719 L 15.773438 36.511719 C 15.773438 36.511719 14.207031 34.953125 13.730469 34.070312 C 13.253906 33.1875 12.269531 31.902344 12.269531 31.902344 C 12.269531 31.902344 9.273438 34.78125 8.660156 36.886719 C 8.046875 38.988281 8.148438 41.769531 8.148438 41.769531 L 16.015625 41.769531 C 16.015625 41.769531 16.8125 41.71875 17.207031 42.109375 C 17.597656 42.496094 17.921875 43.429688 17.921875 43.429688 L 17.921875 55.433594 C 17.921875 55.433594 17.511719 57.199219 15.605469 57.199219 C 13.695312 57.199219 13.289062 55.636719 13.289062 55.636719 L 13.289062 46.585938 C 13.289062 46.585938 5.183594 46.585938 5.183594 46.585938 C 5.183594 46.585938 4.539062 46.550781 3.960938 45.839844 C 3.378906 45.125 3.242188 44.175781 3.242188 42.855469 C 3.242188 41.53125 3.347656 36.378906 5.695312 32.445312 C 8.046875 28.507812 11.039062 26 13.050781 26 C 15.605469 26 17.410156 33.53125 17.410156 33.53125 Z M 17.410156 33.527344 " fill-opacity="1" fill-rule="nonzero"/></g><path fill="#21356a" d="M 23.351562 24.304688 C 23.351562 24.800781 23.257812 25.277344 23.066406 25.738281 C 22.875 26.199219 22.601562 26.601562 22.25 26.953125 C 21.898438 27.304688 21.492188 27.578125 21.03125 27.765625 C 20.570312 27.957031 20.089844 28.050781 19.589844 28.050781 C 19.089844 28.050781 18.609375 27.957031 18.148438 27.765625 C 17.6875 27.578125 17.28125 27.304688 16.929688 26.953125 C 16.574219 26.601562 16.304688 26.199219 16.113281 25.738281 C 15.921875 25.277344 15.828125 24.800781 15.828125 24.304688 C 15.828125 23.808594 15.921875 23.328125 16.113281 22.871094 C 16.304688 22.410156 16.574219 22.003906 16.929688 21.652344 C 17.28125 21.300781 17.6875 21.03125 18.148438 20.839844 C 18.609375 20.652344 19.089844 20.554688 19.589844 20.554688 C 20.089844 20.554688 20.570312 20.652344 21.03125 20.839844 C 21.492188 21.03125 21.898438 21.300781 22.25 21.652344 C 22.601562 22.003906 22.875 22.410156 23.066406 22.871094 C 23.257812 23.328125 23.351562 23.808594 23.351562 24.304688 Z M 23.351562 24.304688 " fill-opacity="1" fill-rule="nonzero"/><path fill="#21356a" d="M 27.214844 38.445312 L 22.6875 38.445312 C 22.6875 38.445312 22.109375 38.75 22.109375 39.089844 C 22.109375 39.425781 22.550781 39.628906 22.550781 39.628906 L 28.304688 39.628906 C 28.304688 39.628906 30.316406 34.410156 30.316406 34.410156 C 30.316406 34.410156 30.519531 33.765625 29.90625 33.457031 C 29.296875 33.152344 28.988281 33.796875 28.988281 33.796875 L 27.21875 38.445312 Z M 27.214844 38.445312 " fill-opacity="1" fill-rule="nonzero"/><g clip-path="url(#b02602bf5a)"><path fill="#21356a" d="M 55.59375 33.527344 L 48.066406 33.527344 C 48.066406 33.527344 46.742188 33.628906 46.742188 35.054688 C 46.742188 36.480469 48.066406 36.511719 48.066406 36.511719 L 57.226562 36.511719 C 57.226562 36.511719 58.792969 34.953125 59.269531 34.070312 C 59.746094 33.1875 60.734375 31.902344 60.734375 31.902344 C 60.734375 31.902344 63.730469 34.78125 64.34375 36.886719 C 64.953125 38.988281 64.855469 41.769531 64.855469 41.769531 L 56.988281 41.769531 C 56.988281 41.769531 56.1875 41.71875 55.796875 42.109375 C 55.40625 42.496094 55.082031 43.429688 55.082031 43.429688 L 55.082031 55.433594 C 55.082031 55.433594 55.488281 57.199219 57.398438 57.199219 C 59.304688 57.199219 59.714844 55.636719 59.714844 55.636719 L 59.714844 46.585938 L 67.816406 46.585938 C 67.816406 46.585938 68.464844 46.550781 69.042969 45.839844 C 69.621094 45.125 69.757812 44.175781 69.757812 42.855469 C 69.757812 41.53125 69.65625 36.378906 67.304688 32.445312 C 64.957031 28.507812 61.960938 26 59.949219 26 C 57.398438 26 55.59375 33.53125 55.59375 33.53125 Z M 55.59375 33.527344 " fill-opacity="1" fill-rule="nonzero"/></g><path fill="#21356a" d="M 57.175781 24.304688 C 57.175781 24.800781 57.082031 25.277344 56.890625 25.738281 C 56.699219 26.199219 56.425781 26.601562 56.074219 26.953125 C 55.722656 27.304688 55.316406 27.578125 54.855469 27.765625 C 54.394531 27.957031 53.914062 28.050781 53.414062 28.050781 C 52.914062 28.050781 52.433594 27.957031 51.972656 27.765625 C 51.511719 27.578125 51.105469 27.304688 50.753906 26.953125 C 50.402344 26.601562 50.128906 26.199219 49.9375 25.738281 C 49.746094 25.277344 49.652344 24.800781 49.652344 24.304688 C 49.652344 23.808594 49.746094 23.328125 49.9375 22.871094 C 50.128906 22.410156 50.402344 22.003906 50.753906 21.652344 C 51.105469 21.300781 51.511719 21.03125 51.972656 20.839844 C 52.433594 20.652344 52.914062 20.554688 53.414062 20.554688 C 53.914062 20.554688 54.394531 20.652344 54.855469 20.839844 C 55.316406 21.03125 55.722656 21.300781 56.074219 21.652344 C 56.425781 22.003906 56.699219 22.410156 56.890625 22.871094 C 57.082031 23.328125 57.175781 23.808594 57.175781 24.304688 Z M 57.175781 24.304688 " fill-opacity="1" fill-rule="nonzero"/><path fill="#21356a" d="M 45.785156 38.445312 L 50.316406 38.445312 C 50.316406 38.445312 50.894531 38.75 50.894531 39.089844 C 50.894531 39.425781 50.449219 39.628906 50.449219 39.628906 L 44.695312 39.628906 L 42.6875 34.410156 C 42.6875 34.410156 42.484375 33.765625 43.097656 33.457031 C 43.707031 33.152344 44.015625 33.796875 44.015625 33.796875 Z M 45.785156 38.445312 " fill-opacity="1" fill-rule="nonzero"/><g clip-path="url(#7f18a31516)"><path stroke-linecap="butt" transform="matrix(0.151178, 0, 0, 0.150574, 0.0225151, 15.496923)" fill="none" stroke-linejoin="miter" d="M 214.054741 77.692178 C 201.962181 86.564501 194.107185 100.884742 194.107185 117.046897 C 194.107185 143.975176 215.940973 165.818732 242.890844 165.818732 C 269.840715 165.818732 291.674503 144.001119 291.674503 117.046897 C 291.674503 100.33995 283.302731 85.60463 270.486685 76.810134 " stroke="#3a87c4" stroke-width="24" stroke-opacity="1" stroke-miterlimit="10"/></g><path fill="#3a87c4" d="M 35.609375 31.707031 L 37.929688 31.707031 L 37.929688 34.015625 L 35.609375 34.015625 Z M 35.609375 31.707031 " fill-opacity="1" fill-rule="nonzero"/><path fill="#3a87c4" d="M 36.949219 28.523438 L 39.265625 28.523438 L 39.265625 30.832031 L 36.949219 30.832031 Z M 36.949219 28.523438 " fill-opacity="1" fill-rule="nonzero"/><path fill="#3a87c4" d="M 34.011719 28.523438 L 36.332031 28.523438 L 36.332031 30.832031 L 34.011719 30.832031 Z M 34.011719 28.523438 " fill-opacity="1" fill-rule="nonzero"/><path fill="#3a87c4" d="M 38.105469 25.339844 L 40.425781 25.339844 L 40.425781 27.648438 L 38.105469 27.648438 Z M 38.105469 25.339844 " fill-opacity="1" fill-rule="nonzero"/><path fill="#3a87c4" d="M 32.851562 25.339844 L 35.171875 25.339844 L 35.171875 27.648438 L 32.851562 27.648438 Z M 32.851562 25.339844 " fill-opacity="1" fill-rule="nonzero"/><path fill="#3a87c4" d="M 39.730469 22.105469 L 42.050781 22.105469 L 42.050781 24.417969 L 39.730469 24.417969 Z M 39.730469 22.105469 " fill-opacity="1" fill-rule="nonzero"/><path fill="#3a87c4" d="M 34.453125 22.105469 L 36.769531 22.105469 L 36.769531 24.417969 L 34.453125 24.417969 Z M 34.453125 22.105469 " fill-opacity="1" fill-rule="nonzero"/><path fill="#3a87c4" d="M 31.121094 22.105469 L 33.441406 22.105469 L 33.441406 24.417969 L 31.121094 24.417969 Z M 31.121094 22.105469 " fill-opacity="1" fill-rule="nonzero"/><path fill="#3a87c4" d="M 41.863281 18.738281 L 44.183594 18.738281 L 44.183594 21.046875 L 41.863281 21.046875 Z M 41.863281 18.738281 " fill-opacity="1" fill-rule="nonzero"/><path fill="#3a87c4" d="M 38.835938 18.738281 L 41.15625 18.738281 L 41.15625 21.046875 L 38.835938 21.046875 Z M 38.835938 18.738281 " fill-opacity="1" fill-rule="nonzero"/><path fill="#3a87c4" d="M 35.609375 18.738281 L 37.929688 18.738281 L 37.929688 21.046875 L 35.609375 21.046875 Z M 35.609375 18.738281 " fill-opacity="1" fill-rule="nonzero"/><path fill="#3a87c4" d="M 29.1875 18.738281 L 31.507812 18.738281 L 31.507812 21.046875 L 29.1875 21.046875 Z M 29.1875 18.738281 " fill-opacity="1" fill-rule="nonzero"/><g clip-path="url(#96cc383cf8)"><path fill="#3a87c4" d="M 43.632812 15.496094 L 45.949219 15.496094 L 45.949219 17.808594 L 43.632812 17.808594 Z M 43.632812 15.496094 " fill-opacity="1" fill-rule="nonzero"/></g><g clip-path="url(#aa87c713dd)"><path fill="#3a87c4" d="M 36.949219 15.496094 L 39.265625 15.496094 L 39.265625 17.808594 L 36.949219 17.808594 Z M 36.949219 15.496094 " fill-opacity="1" fill-rule="nonzero"/></g><g clip-path="url(#a5b9a7cf74)"><path fill="#3a87c4" d="M 30.8125 15.496094 L 33.132812 15.496094 L 33.132812 17.808594 L 30.8125 17.808594 Z M 30.8125 15.496094 " fill-opacity="1" fill-rule="nonzero"/></g></svg>