<svg xmlns="http://www.w3.org/2000/svg" xmlns:xlink="http://www.w3.org/1999/xlink" width="500" zoomAndPan="magnify" viewBox="0 0 375 374.999991" height="500" preserveAspectRatio="xMidYMid meet" version="1.0"><defs><clipPath id="0426a6e319"><path d="M 96.574219 30.210938 L 157.492188 30.210938 L 157.492188 65.335938 L 96.574219 65.335938 Z M 96.574219 30.210938 " clip-rule="nonzero"/></clipPath><clipPath id="83990601ad"><path d="M 126.980469 30.210938 C 110.1875 30.210938 96.574219 38.074219 96.574219 47.773438 C 96.574219 57.472656 110.1875 65.335938 126.980469 65.335938 C 143.773438 65.335938 157.382812 57.472656 157.382812 47.773438 C 157.382812 38.074219 143.773438 30.210938 126.980469 30.210938 Z M 126.980469 30.210938 " clip-rule="nonzero"/></clipPath><clipPath id="ddb3244835"><path d="M 174.65625 30.210938 L 231.734375 30.210938 L 231.734375 65.335938 L 174.65625 65.335938 Z M 174.65625 30.210938 " clip-rule="nonzero"/></clipPath><clipPath id="7bd08938df"><path d="M 203.136719 30.210938 C 187.40625 30.210938 174.65625 38.074219 174.65625 47.773438 C 174.65625 57.472656 187.40625 65.335938 203.136719 65.335938 C 218.863281 65.335938 231.613281 57.472656 231.613281 47.773438 C 231.613281 38.074219 218.863281 30.210938 203.136719 30.210938 Z M 203.136719 30.210938 " clip-rule="nonzero"/></clipPath><clipPath id="f7e00ff29e"><path d="M 79 0 L 297.953125 0 L 297.953125 375 L 79 375 Z M 79 0 " clip-rule="nonzero"/></clipPath><clipPath id="b1eeae5a5d"><path d="M 103.640625 32.296875 L 134.589844 32.296875 L 134.589844 63.25 L 103.640625 63.25 Z M 103.640625 32.296875 " clip-rule="nonzero"/></clipPath><clipPath id="c5fe359b34"><path d="M 119.113281 32.296875 C 110.566406 32.296875 103.640625 39.226562 103.640625 47.773438 C 103.640625 56.320312 110.566406 63.25 119.113281 63.25 C 127.660156 63.25 134.589844 56.320312 134.589844 47.773438 C 134.589844 39.226562 127.660156 32.296875 119.113281 32.296875 Z M 119.113281 32.296875 " clip-rule="nonzero"/></clipPath><clipPath id="3ab71a5103"><path d="M 195.902344 32.296875 L 226.855469 32.296875 L 226.855469 63.25 L 195.902344 63.25 Z M 195.902344 32.296875 " clip-rule="nonzero"/></clipPath><clipPath id="18af11ea2a"><path d="M 211.378906 32.296875 C 202.832031 32.296875 195.902344 39.226562 195.902344 47.773438 C 195.902344 56.320312 202.832031 63.25 211.378906 63.25 C 219.925781 63.25 226.855469 56.320312 226.855469 47.773438 C 226.855469 39.226562 219.925781 32.296875 211.378906 32.296875 Z M 211.378906 32.296875 " clip-rule="nonzero"/></clipPath></defs><g clip-path="url(#0426a6e319)"><g clip-path="url(#83990601ad)"><path fill="#000000" d="M 96.574219 30.210938 L 157.355469 30.210938 L 157.355469 65.335938 L 96.574219 65.335938 Z M 96.574219 30.210938 " fill-opacity="1" fill-rule="nonzero"/></g></g><g clip-path="url(#ddb3244835)"><g clip-path="url(#7bd08938df)"><path fill="#000000" d="M 174.65625 30.210938 L 231.597656 30.210938 L 231.597656 65.335938 L 174.65625 65.335938 Z M 174.65625 30.210938 " fill-opacity="1" fill-rule="nonzero"/></g></g><path fill="#000000" d="M 162 343.921875 C 162 344.308594 161.964844 344.695312 161.886719 345.078125 C 161.8125 345.460938 161.699219 345.828125 161.550781 346.191406 C 161.402344 346.550781 161.21875 346.890625 161.003906 347.214844 C 160.785156 347.539062 160.539062 347.839844 160.265625 348.113281 C 159.992188 348.386719 159.691406 348.632812 159.367188 348.851562 C 159.042969 349.066406 158.703125 349.25 158.34375 349.398438 C 157.984375 349.546875 157.613281 349.660156 157.230469 349.734375 C 156.851562 349.8125 156.464844 349.851562 156.078125 349.851562 C 155.6875 349.851562 155.300781 349.8125 154.921875 349.734375 C 154.539062 349.660156 154.167969 349.546875 153.808594 349.398438 C 153.449219 349.25 153.109375 349.066406 152.785156 348.851562 C 152.460938 348.632812 152.160156 348.386719 151.886719 348.113281 C 151.613281 347.839844 151.367188 347.539062 151.148438 347.214844 C 150.933594 346.890625 150.75 346.550781 150.601562 346.191406 C 150.453125 345.828125 150.339844 345.460938 150.265625 345.078125 C 150.1875 344.695312 150.152344 344.308594 150.152344 343.921875 C 150.152344 343.53125 150.1875 343.144531 150.265625 342.761719 C 150.339844 342.382812 150.453125 342.011719 150.601562 341.652344 C 150.75 341.292969 150.933594 340.949219 151.148438 340.625 C 151.367188 340.300781 151.613281 340.003906 151.886719 339.726562 C 152.160156 339.453125 152.460938 339.207031 152.785156 338.988281 C 153.109375 338.773438 153.449219 338.589844 153.808594 338.441406 C 154.167969 338.292969 154.539062 338.179688 154.921875 338.105469 C 155.300781 338.027344 155.6875 337.992188 156.078125 337.992188 C 156.464844 337.992188 156.851562 338.027344 157.230469 338.105469 C 157.613281 338.179688 157.984375 338.292969 158.34375 338.441406 C 158.703125 338.589844 159.042969 338.773438 159.367188 338.988281 C 159.691406 339.207031 159.992188 339.453125 160.265625 339.726562 C 160.539062 340.003906 160.785156 340.300781 161.003906 340.625 C 161.21875 340.949219 161.402344 341.292969 161.550781 341.652344 C 161.699219 342.011719 161.8125 342.382812 161.886719 342.761719 C 161.964844 343.144531 162 343.53125 162 343.921875 Z M 162 343.921875 " fill-opacity="1" fill-rule="nonzero"/><g clip-path="url(#f7e00ff29e)"><path fill="#000000" d="M 277.835938 141.128906 L 270.429688 141.128906 C 266.28125 141.128906 262.726562 142.3125 259.46875 144.386719 C 255.914062 136.976562 249.394531 132.234375 241.691406 132.234375 L 234.285156 132.234375 C 230.433594 132.234375 226.582031 133.417969 223.621094 135.789062 C 220.660156 126.597656 213.253906 120.375 204.363281 120.375 L 197.550781 120.375 C 194.292969 120.375 191.328125 121.261719 188.664062 122.746094 L 188.664062 75.902344 C 193.699219 83.015625 194.589844 92.207031 194.589844 92.503906 C 194.886719 95.765625 197.847656 98.136719 200.808594 97.839844 C 204.070312 97.542969 206.4375 94.875 206.140625 91.613281 C 206.140625 91.023438 205.253906 80.347656 199.03125 70.566406 C 204.070312 72.9375 208.808594 74.121094 213.546875 74.121094 C 219.769531 74.121094 225.695312 71.75 229.546875 67.601562 C 233.398438 63.449219 235.765625 57.222656 235.765625 50.402344 L 235.765625 44.472656 C 235.765625 30.242188 226.878906 20.753906 213.546875 20.753906 C 208.808594 20.753906 203.773438 21.941406 198.734375 24.609375 L 188.664062 29.355469 L 188.664062 24.015625 C 188.664062 9.785156 181.554688 0 170.890625 0 L 162 0 C 151.335938 0 144.226562 9.785156 144.226562 24.015625 L 144.226562 30.835938 L 130.894531 24.3125 C 125.859375 21.941406 120.824219 20.460938 116.082031 20.460938 C 102.75 20.753906 93.863281 30.242188 93.863281 44.472656 L 93.863281 50.402344 C 93.863281 64.636719 102.75 74.121094 116.082031 74.121094 C 120.230469 74.121094 124.378906 73.234375 128.523438 71.453125 C 122.894531 80.644531 122.007812 90.726562 122.007812 91.613281 C 121.710938 94.875 124.082031 97.839844 127.339844 97.839844 C 130.597656 98.136719 133.5625 95.46875 133.5625 92.503906 C 133.5625 92.207031 134.746094 78.273438 143.929688 71.15625 L 143.929688 181.449219 L 135.042969 163.066406 C 128.820312 150.910156 120.824219 144.09375 111.046875 142.609375 C 95.046875 140.238281 81.421875 153.578125 80.828125 154.171875 C 79.347656 155.949219 78.753906 158.324219 79.347656 160.398438 C 80.234375 162.472656 81.125 165.140625 82.015625 167.515625 C 86.753906 180.558594 92.679688 196.867188 97.121094 213.171875 C 99.492188 221.769531 103.9375 242.226562 105.714844 252.308594 C 106.304688 255.867188 108.675781 260.3125 111.046875 262.980469 L 135.929688 292.332031 C 135.929688 292.332031 135.929688 292.628906 136.226562 292.628906 C 137.117188 293.816406 138.300781 295.59375 138.300781 296.484375 L 138.300781 314.273438 L 132.375 314.273438 C 129.117188 314.273438 126.453125 316.941406 126.453125 320.203125 L 126.453125 373.570312 C 126.453125 376.828125 129.117188 379.5 132.375 379.5 C 135.636719 379.5 138.300781 376.828125 138.300781 373.570312 L 138.300781 326.132812 L 277.539062 326.132812 L 277.539062 373.570312 C 277.539062 376.828125 280.203125 379.5 283.464844 379.5 C 286.722656 379.5 289.390625 376.828125 289.390625 373.570312 L 289.390625 320.203125 C 289.390625 316.941406 286.722656 314.273438 283.464844 314.273438 L 280.5 314.273438 L 280.5 300.335938 C 280.796875 299.449219 295.609375 268.910156 295.609375 268.910156 C 297.089844 265.945312 298.277344 261.203125 298.277344 257.644531 L 298.277344 165.4375 C 298.277344 152.097656 289.09375 141.128906 277.835938 141.128906 Z M 204.070312 35.28125 C 207.625 33.503906 210.882812 32.613281 213.84375 32.613281 C 222.734375 32.613281 224.214844 40.027344 224.214844 44.472656 L 224.214844 50.402344 C 224.214844 54.257812 223.324219 57.519531 221.25 59.59375 C 217.992188 63.152344 211.179688 63.449219 204.070312 59.890625 L 178.589844 47.4375 Z M 156.078125 24.015625 C 156.078125 18.085938 157.855469 11.859375 162 11.859375 L 170.890625 11.859375 C 175.035156 11.859375 176.8125 18.085938 176.8125 24.015625 L 176.8125 34.988281 L 164.964844 40.621094 L 156.078125 36.46875 Z M 116.082031 62.261719 C 107.195312 62.261719 105.714844 54.851562 105.714844 50.402344 L 105.714844 44.472656 C 105.714844 40.027344 106.898438 32.613281 115.785156 32.613281 C 118.75 32.613281 122.007812 33.503906 125.5625 35.28125 L 151.039062 47.4375 L 125.5625 59.59375 C 122.304688 61.375 118.75 62.261719 116.082031 62.261719 Z M 286.425781 257.644531 C 286.425781 259.125 285.832031 262.089844 284.945312 263.871094 C 284.945312 263.871094 272.796875 289.960938 272.503906 290.554688 C 270.726562 293.222656 268.949219 296.78125 268.949219 300.042969 L 268.949219 314.273438 L 150.152344 314.273438 L 150.152344 296.484375 C 150.152344 292.332031 147.484375 287.589844 145.113281 284.625 L 120.230469 255.273438 C 120.230469 255.273438 120.230469 254.976562 119.933594 254.976562 C 119.046875 254.085938 117.859375 251.714844 117.5625 250.230469 C 115.488281 239.855469 111.046875 219.101562 108.675781 210.207031 C 104.234375 193.308594 97.714844 176.113281 92.976562 163.660156 C 92.679688 162.472656 92.085938 161.585938 91.789062 160.398438 C 95.34375 157.730469 102.160156 153.28125 108.972656 154.46875 C 114.898438 155.359375 119.933594 160.101562 124.378906 168.699219 L 144.523438 209.019531 C 146.003906 211.984375 149.558594 213.171875 152.519531 211.691406 C 155.1875 210.207031 155.78125 207.539062 155.78125 204.871094 L 155.78125 58.113281 L 164.667969 53.960938 L 176.515625 59.59375 L 176.515625 157.136719 C 176.515625 160.398438 179.183594 163.066406 182.441406 163.066406 C 185.703125 163.066406 188.367188 160.398438 188.367188 157.136719 L 188.367188 144.386719 C 188.367188 137.867188 192.21875 132.234375 196.957031 132.234375 L 204.363281 132.234375 C 209.105469 132.234375 212.957031 137.867188 212.957031 144.386719 L 212.957031 157.136719 C 212.957031 160.398438 215.621094 163.066406 218.882812 163.066406 C 222.4375 163.066406 225.695312 159.804688 225.695312 156.246094 C 225.695312 149.726562 229.546875 144.09375 234.285156 144.09375 L 241.988281 144.09375 C 246.730469 144.09375 250.578125 149.726562 250.578125 156.246094 L 250.578125 160.101562 C 250.578125 163.066406 252.949219 165.734375 255.914062 166.03125 C 258.875 166.328125 261.835938 164.253906 262.132812 161.289062 C 263.023438 156.246094 266.28125 153.28125 270.429688 153.28125 L 277.835938 153.28125 C 282.574219 153.28125 286.425781 158.914062 286.425781 165.4375 Z M 286.425781 257.644531 " fill-opacity="1" fill-rule="nonzero"/></g><g clip-path="url(#b1eeae5a5d)"><g clip-path="url(#c5fe359b34)"><path fill="#ffffff" d="M 103.640625 32.296875 L 134.589844 32.296875 L 134.589844 63.25 L 103.640625 63.25 Z M 103.640625 32.296875 " fill-opacity="1" fill-rule="nonzero"/></g></g><g clip-path="url(#3ab71a5103)"><g clip-path="url(#18af11ea2a)"><path fill="#ffffff" d="M 195.902344 32.296875 L 226.855469 32.296875 L 226.855469 63.25 L 195.902344 63.25 Z M 195.902344 32.296875 " fill-opacity="1" fill-rule="nonzero"/></g></g></svg>