<?xml version="1.0" encoding="UTF-8" standalone="no" ?>
<!DOCTYPE svg PUBLIC "-//W3C//DTD SVG 1.1//EN" "http://www.w3.org/Graphics/SVG/1.1/DTD/svg11.dtd">
<svg xmlns="http://www.w3.org/2000/svg" xmlns:xlink="http://www.w3.org/1999/xlink" version="1.1" width="1080" height="200" viewBox="0 0 1080 200" xml:space="preserve">
<desc>Created with Fabric.js 5.2.4</desc>
<defs>
</defs>
<g transform="matrix(0 0 0 0 0 0)" id="0dd26b98-433e-4c00-b0ff-7e54e4eccc67"  >
</g>
<g transform="matrix(1 0 0 1 540 100)" id="e12059d4-9a04-4047-b9e3-87c63c9635f8"  >
<rect style="stroke: none; stroke-width: 1; stroke-dasharray: none; stroke-linecap: butt; stroke-dashoffset: 0; stroke-linejoin: miter; stroke-miterlimit: 4; fill: rgb(255,255,255); fill-rule: nonzero; opacity: 1; visibility: hidden;" vector-effect="non-scaling-stroke"  x="-540" y="-100" rx="0" ry="0" width="1080" height="200" />
</g>
<g transform="matrix(1.56 0 0 1.56 444.66 84.37)"  >
<path style="stroke: none; stroke-width: 1; stroke-dasharray: none; stroke-linecap: butt; stroke-dashoffset: 0; stroke-linejoin: miter; stroke-miterlimit: 4; fill: rgb(240,104,35); fill-rule: nonzero; opacity: 1;" vector-effect="non-scaling-stroke"  transform=" translate(-159.15, -33.8)" d="M 58.1 38.6 C 37.5 38.6 23.700000000000003 37.5 18.700000000000003 35.800000000000004 C 13.900000000000002 34.1 12.300000000000002 30.200000000000003 12.300000000000002 25.600000000000005 C 12.300000000000002 19.400000000000006 15.200000000000003 15.600000000000005 21.400000000000002 13.200000000000005 C 27.6 10.900000000000006 37.5 9.200000000000005 54.10000000000001 9.200000000000005 C 69.60000000000001 9.200000000000005 86.20000000000002 11.200000000000005 94 12.900000000000006 L 92.4 22.400000000000006 C 81.4 20.500000000000007 67.2 19.100000000000005 54.00000000000001 19.100000000000005 C 41.30000000000001 19.100000000000005 33.400000000000006 19.800000000000004 29.200000000000006 21.200000000000006 C 26.600000000000005 22.000000000000007 25.800000000000008 23.200000000000006 25.800000000000008 25.000000000000007 C 25.800000000000008 26.700000000000006 26.60000000000001 27.800000000000008 29.10000000000001 28.400000000000006 C 32.10000000000001 29.100000000000005 41.60000000000001 29.200000000000006 51.900000000000006 29.200000000000006 C 62.10000000000001 29.200000000000006 79.2 29.300000000000008 88.30000000000001 31.500000000000007 C 95.50000000000001 33.20000000000001 97.9 37.300000000000004 97.9 42.7 C 97.9 48.900000000000006 96.10000000000001 52.5 91.10000000000001 54.900000000000006 C 84.60000000000001 58.00000000000001 70.5 59.400000000000006 56.80000000000001 59.400000000000006 C 37.90000000000001 59.400000000000006 21.10000000000001 57.300000000000004 13.300000000000011 55.50000000000001 L 14.600000000000012 46.00000000000001 C 24.000000000000014 47.50000000000001 40.000000000000014 49.50000000000001 56.70000000000002 49.50000000000001 C 69.50000000000001 49.50000000000001 76.60000000000002 48.900000000000006 81.00000000000001 47.50000000000001 C 83.60000000000001 46.70000000000001 84.30000000000001 45.20000000000001 84.30000000000001 43.20000000000001 C 84.30000000000001 41.40000000000001 83.50000000000001 40.00000000000001 80.10000000000001 39.50000000000001 C 75.7 38.70000000000001 67.9 38.60000000000001 58.10000000000001 38.60000000000001 z M 258.3 34 L 258.3 34.1 L 294.90000000000003 57.8 L 294.90000000000003 58.3 L 273.50000000000006 58.3 L 247.2 41 L 247 41 L 213 63.4 C 211 64.7 208.7 65.4 206.3 65.4 L 188.5 65.4 L 188.5 64.9 L 235.9 34.10000000000001 L 235.9 34 L 200.10000000000002 10.8 L 200.10000000000002 10.200000000000001 L 221.50000000000003 10.200000000000001 L 247 27.1 L 247.1 27.1 L 281.6 4.200000000000003 C 283.6 2.900000000000003 285.90000000000003 2.200000000000003 288.3 2.200000000000003 L 306 2.200000000000003 L 306 2.800000000000003 L 258.3 34 z" stroke-linecap="round" />
</g>
<g transform="matrix(1.56 0 0 1.56 570.48 85.14)"  >
<path style="stroke: none; stroke-width: 1; stroke-dasharray: none; stroke-linecap: butt; stroke-dashoffset: 0; stroke-linejoin: miter; stroke-miterlimit: 4; fill: rgb(240,104,35); fill-rule: nonzero; opacity: 1;" vector-effect="non-scaling-stroke"  transform=" translate(-239.05, -34.25)" d="M 302 46.5 C 302 46.5 319.5 49.4 332.2 49.4 C 353.09999999999997 49.4 358.8 46.4 358.8 42.4 C 358.8 39.5 357.2 38.199999999999996 351.40000000000003 38.199999999999996 L 323.8 38.199999999999996 L 323.8 29.699999999999996 L 350.3 29.699999999999996 C 355.2 29.699999999999996 357.2 28.199999999999996 357.2 25.499999999999996 C 357.2 22.199999999999996 354.09999999999997 19.099999999999994 333.59999999999997 19.099999999999994 C 317.29999999999995 19.099999999999994 302.79999999999995 22.099999999999994 302.79999999999995 22.099999999999994 L 301.19999999999993 12.699999999999994 C 301.19999999999993 12.699999999999994 315.29999999999995 9.199999999999994 333.49999999999994 9.199999999999994 C 362.09999999999997 9.199999999999994 369.59999999999997 15.599999999999994 369.59999999999997 23.699999999999996 C 369.59999999999997 28.399999999999995 367.79999999999995 31.299999999999997 364.29999999999995 33 L 364.29999999999995 33.3 C 368.79999999999995 34.9 371.19999999999993 38.4 371.19999999999993 42.9 C 371.19999999999993 52.9 363.79999999999995 59.3 332.29999999999995 59.3 C 317.09999999999997 59.3 300.79999999999995 56.199999999999996 300.79999999999995 56.199999999999996 L 301.99999999999994 46.5 z M 163.5 30.5 L 157.1 39.3 L 180.1 39.3 L 180.1 46.199999999999996 C 173.4 47.599999999999994 162.6 48.9 152.6 48.9 C 138.7 48.9 131.1 48 126.39999999999999 45.6 C 122.39999999999999 43.6 120.49999999999999 39.5 120.49999999999999 35.1 C 120.49999999999999 30.700000000000003 121.89999999999999 27.200000000000003 125.39999999999999 24.6 C 129.39999999999998 21.700000000000003 137 19.8 152.6 19.8 C 164.2 19.900000000000002 179 21.3 190.3 23.1 L 192 13.100000000000001 C 184.4 11.500000000000002 169.4 9.200000000000001 152.7 9.200000000000001 C 135.5 9.200000000000001 123.39999999999999 12.3 116.69999999999999 16.6 C 110.79999999999998 20.400000000000002 106.89999999999999 26.400000000000002 106.89999999999999 35.1 C 106.89999999999999 43.900000000000006 110.89999999999999 50.3 117.19999999999999 53.7 C 124.39999999999999 57.6 134.39999999999998 59.300000000000004 152.6 59.300000000000004 C 168.79999999999998 59.300000000000004 185.3 56.1 193.5 53.6 L 193.5 30.5 L 163.5 30.5 z" stroke-linecap="round" />
</g>
<g transform="matrix(0 0 0 0 20.56 136.36)"  >
<g style=""   >
</g>
</g>
<g transform="matrix(0 0 0 0 20.56 136.36)"  >
<g style=""   >
</g>
</g>
<g transform="matrix(0 0 0 0 448.35 0)"  >
<g style=""   >
</g>
</g>
<g transform="matrix(0 0 0 0 448.35 0)"  >
<g style=""   >
</g>
</g>
<g transform="matrix(0 0 0 0 448.35 0)"  >
<g style=""   >
</g>
</g>
<g transform="matrix(0 0 0 0 448.35 0)"  >
<g style=""   >
</g>
</g>
<g transform="matrix(0.67 0 0 0.67 505.16 168.72)" style="" id="59b74dff-a089-4f6b-9fa8-1e4140fa1407"  >
		<text xml:space="preserve" font-family="Lato" font-size="72" font-style="normal" font-weight="700" style="stroke: none; stroke-width: 1; stroke-dasharray: none; stroke-linecap: butt; stroke-dashoffset: 0; stroke-linejoin: miter; stroke-miterlimit: 4; fill: rgb(0,0,0); fill-rule: nonzero; opacity: 1; white-space: pre;" ><tspan x="-431.12" y="22.62" >Extend. Expand. Exemplify.</tspan></text>
</g>
</svg>